<?xml version="1.0" standalone="no"?>
<!DOCTYPE svg PUBLIC "-//W3C//DTD SVG 20010904//EN"
 "http://www.w3.org/TR/2001/REC-SVG-20010904/DTD/svg10.dtd">
<svg version="1.0" xmlns="http://www.w3.org/2000/svg"
 width="5488.000000pt" height="1304.000000pt" viewBox="0 0 5488.000000 1304.000000"
 preserveAspectRatio="xMidYMid meet">
<metadata>
Created by potrace 1.15, written by Peter Selinger 2001-2017
</metadata>
<g transform="translate(0.000000,1304.000000) scale(0.100000,-0.100000)"
fill="#000000" stroke="none">
<path d="M0 6520 l0 -6520 27440 0 27440 0 0 6520 0 6520 -27440 0 -27440 0 0
-6520z m9673 3834 c33 -5 48 -12 52 -25 4 -11 12 -19 20 -19 8 0 17 -9 20 -20
3 -11 12 -20 18 -20 7 0 25 -27 42 -60 16 -33 33 -60 36 -60 4 0 13 -26 19
-57 7 -32 17 -61 24 -65 15 -10 15 -786 -1 -796 -5 -4 -16 -95 -23 -207 -7
-110 -16 -202 -20 -205 -3 -3 -12 -54 -18 -115 -6 -60 -19 -186 -28 -280 -10
-93 -21 -172 -24 -175 -4 -3 -15 -74 -25 -157 -10 -84 -21 -153 -25 -153 -4 0
-11 -31 -14 -70 -4 -38 -11 -70 -15 -70 -4 0 -20 -105 -36 -232 -15 -128 -32
-235 -36 -238 -5 -3 -18 -85 -30 -183 -17 -129 -26 -177 -36 -177 -9 0 -13
-14 -13 -42 0 -24 -7 -88 -14 -143 -8 -55 -20 -156 -27 -225 -7 -69 -16 -127
-20 -130 -6 -4 -38 -277 -55 -467 -4 -40 -11 -73 -15 -73 -5 0 -9 -20 -9 -45
0 -25 -4 -45 -9 -45 -4 0 -18 -111 -31 -247 -13 -137 -27 -250 -30 -253 -8 -5
-60 -592 -60 -667 0 -24 -4 -43 -10 -43 -6 0 -10 -52 -10 -135 0 -127 1 -135
19 -135 15 0 23 13 35 54 9 30 19 56 24 58 4 2 18 44 30 93 13 50 28 92 33 93
5 2 9 10 9 18 0 8 4 14 9 14 5 0 12 17 16 38 4 20 10 42 14 47 4 6 13 36 20
67 7 32 17 58 22 58 5 0 11 12 15 28 15 72 50 172 59 172 5 0 21 34 34 75 13
41 28 75 32 75 5 0 9 8 9 18 0 9 11 49 25 87 13 39 25 78 25 88 0 9 4 17 10
17 5 0 12 11 16 25 3 14 9 25 13 25 4 0 14 23 21 52 8 28 19 56 25 62 6 6 24
49 39 96 15 47 31 87 35 90 11 8 31 60 31 80 0 11 4 20 9 20 5 0 15 16 21 35
6 19 15 35 20 35 4 0 18 31 29 69 12 39 28 76 36 85 8 8 15 21 15 30 0 8 4 17
9 21 5 3 13 19 16 37 7 29 11 37 40 71 6 7 22 39 35 72 13 33 27 62 31 65 10
8 46 82 53 113 3 15 12 27 19 27 14 0 57 80 57 105 0 7 6 20 13 27 7 7 26 37
43 65 16 29 32 53 37 53 4 0 7 7 7 15 0 8 3 15 8 15 4 0 18 20 32 45 14 25 28
45 31 45 4 0 12 14 20 32 7 17 25 44 41 60 15 16 28 33 28 38 0 6 6 10 14 10
8 0 17 9 21 19 3 11 14 22 24 26 9 3 23 21 30 40 7 19 18 35 26 35 7 0 17 9
20 20 3 11 17 23 31 26 13 3 24 10 24 15 0 5 7 9 15 9 8 0 17 11 21 25 3 14
12 25 20 25 8 0 14 5 14 10 0 6 5 10 11 10 6 0 17 7 25 15 9 8 29 15 45 15 16
0 29 5 29 10 0 6 7 10 15 10 8 0 15 5 15 10 0 6 38 10 95 10 57 0 95 -4 95
-10 0 -5 7 -10 15 -10 8 0 15 -4 15 -9 0 -5 13 -12 29 -16 20 -4 33 -16 42
-38 7 -18 16 -34 19 -37 14 -11 50 -79 50 -93 0 -9 6 -22 13 -29 7 -7 19 -33
27 -58 8 -25 18 -47 22 -50 4 -3 13 -39 19 -80 7 -41 16 -77 20 -80 8 -6 49
-302 49 -357 0 -17 4 -33 9 -35 9 -3 35 -312 53 -650 8 -159 16 -228 24 -228
7 0 13 -47 18 -147 7 -130 18 -274 42 -533 4 -41 10 -77 13 -80 4 -3 12 -50
19 -105 21 -177 47 -315 58 -315 6 0 16 -30 23 -67 18 -95 42 -187 49 -193 6
-4 22 -56 52 -170 5 -19 14 -36 19 -38 6 -2 11 -10 11 -18 0 -8 4 -14 9 -14 5
0 11 -10 14 -22 11 -44 32 -98 38 -98 8 0 46 -121 54 -172 3 -21 10 -38 15
-38 6 0 10 -36 10 -80 0 -47 -4 -80 -10 -80 -5 0 -10 -10 -10 -22 0 -27 -50
-138 -62 -138 -5 0 -16 -7 -24 -15 -9 -8 -24 -15 -35 -15 -10 0 -19 -4 -19
-10 0 -5 -7 -10 -15 -10 -8 0 -15 -7 -15 -15 0 -12 -16 -15 -80 -15 -64 0 -80
3 -80 15 0 9 -9 15 -21 15 -11 0 -27 7 -35 15 -9 8 -23 15 -33 15 -9 0 -23 10
-31 21 -8 12 -24 31 -35 43 -11 12 -31 41 -45 66 -25 47 -33 58 -62 91 -10 10
-18 26 -18 34 0 19 -21 65 -31 65 -4 0 -12 24 -19 53 -15 63 -43 150 -51 157
-3 3 -14 57 -24 120 -11 63 -23 118 -27 121 -4 3 -11 34 -14 70 -4 35 -10 66
-14 69 -11 8 -39 315 -52 565 -6 127 -14 232 -18 235 -4 3 -12 124 -18 270
-17 381 -34 620 -44 620 -4 0 -8 27 -8 60 0 33 -4 60 -9 60 -4 0 -11 37 -15
82 -9 106 -36 239 -52 255 -7 7 -16 27 -19 45 -7 33 -35 68 -55 68 -5 0 -10 5
-10 10 0 6 -20 10 -45 10 -25 0 -45 -4 -45 -10 0 -5 -11 -10 -24 -10 -13 0
-26 -7 -30 -15 -3 -8 -12 -15 -20 -15 -8 0 -20 -16 -27 -35 -7 -19 -18 -35
-24 -35 -6 0 -21 -20 -35 -45 -14 -25 -28 -45 -31 -45 -4 0 -12 -14 -20 -32
-7 -17 -25 -44 -40 -59 -15 -16 -38 -55 -50 -89 -12 -33 -25 -60 -29 -60 -4 0
-18 -25 -30 -55 -12 -30 -26 -55 -31 -55 -5 0 -9 -7 -9 -15 0 -8 -4 -15 -10
-15 -5 0 -10 -9 -10 -19 0 -11 -4 -22 -9 -25 -5 -4 -17 -31 -26 -61 -10 -30
-21 -55 -25 -55 -4 0 -15 -25 -25 -55 -9 -30 -21 -57 -26 -61 -5 -3 -9 -16 -9
-30 0 -14 -6 -24 -15 -24 -8 0 -18 -12 -21 -27 -4 -16 -10 -32 -14 -38 -4 -5
-13 -32 -20 -60 -8 -27 -18 -53 -23 -56 -12 -8 -37 -77 -37 -102 0 -10 -7 -20
-15 -23 -8 -4 -15 -14 -15 -24 0 -10 -7 -25 -15 -34 -8 -8 -15 -21 -15 -30 0
-8 -4 -18 -10 -21 -5 -3 -10 -17 -10 -30 0 -13 -6 -30 -12 -37 -7 -7 -21 -40
-32 -73 -26 -83 -39 -119 -46 -125 -3 -3 -12 -25 -20 -50 -8 -25 -20 -51 -26
-57 -7 -7 -15 -30 -19 -52 -3 -22 -12 -42 -19 -44 -8 -3 -16 -18 -19 -34 -10
-54 -42 -158 -49 -161 -5 -2 -15 -28 -24 -58 -8 -30 -19 -54 -24 -54 -4 0 -11
-18 -15 -40 -4 -22 -11 -40 -15 -40 -5 0 -16 -26 -24 -58 -28 -99 -39 -132
-45 -132 -4 0 -13 -21 -20 -47 -27 -98 -33 -113 -46 -113 -7 0 -15 -15 -19
-32 -10 -51 -48 -172 -56 -178 -4 -3 -20 -47 -36 -97 -15 -51 -32 -93 -36 -93
-4 0 -8 -7 -8 -15 0 -8 -4 -15 -8 -15 -5 0 -15 -23 -22 -51 -8 -27 -18 -52
-22 -55 -4 -3 -8 -16 -8 -30 0 -13 -4 -24 -10 -24 -5 0 -13 -12 -16 -27 -4
-16 -13 -37 -20 -48 -8 -11 -14 -29 -14 -41 0 -11 -9 -31 -20 -44 -11 -13 -20
-29 -20 -37 0 -7 -4 -13 -9 -13 -5 0 -17 -20 -27 -45 -9 -25 -21 -45 -25 -45
-5 0 -18 -19 -30 -42 -12 -24 -32 -53 -45 -65 -13 -12 -24 -27 -24 -33 0 -5
-7 -10 -15 -10 -8 0 -15 -4 -15 -10 0 -5 -7 -10 -15 -10 -8 0 -15 -4 -15 -10
0 -6 -30 -10 -70 -10 -40 0 -70 4 -70 10 0 6 -9 10 -20 10 -11 0 -20 5 -20 10
0 6 -7 10 -15 10 -8 0 -15 5 -15 11 0 14 -56 69 -70 69 -5 0 -10 8 -10 18 0
10 -6 27 -14 38 -8 12 -18 44 -22 72 -3 29 -10 52 -15 52 -5 0 -9 65 -9 145 0
80 4 145 9 145 4 0 11 33 14 73 18 255 42 467 53 467 7 0 13 27 17 73 17 224
51 553 57 557 3 3 11 61 17 130 7 69 20 211 29 315 10 105 21 192 26 193 4 2
8 30 8 63 0 33 4 59 10 59 6 0 10 17 10 38 0 65 43 567 50 572 6 4 41 402 57
638 3 50 9 92 13 92 4 0 11 61 15 135 4 74 10 135 14 135 4 0 16 123 26 273
10 149 21 274 25 277 6 5 33 359 47 610 3 63 9 117 13 120 4 3 15 140 25 305
10 165 21 302 25 305 4 3 11 78 15 168 4 89 10 162 14 162 4 0 13 87 19 193
15 228 43 500 53 507 4 3 10 28 14 55 12 88 36 185 46 185 5 0 9 7 9 15 0 8 5
15 10 15 6 0 10 5 10 12 0 18 50 140 64 154 6 6 20 24 30 38 20 28 49 32 139
20z m11177 -544 c0 -5 14 -10 30 -10 19 0 30 -5 30 -14 0 -8 16 -16 42 -19 24
-3 44 -11 46 -16 2 -6 11 -11 21 -11 9 0 23 -9 31 -20 8 -11 19 -20 25 -20 6
0 17 -9 25 -20 8 -11 20 -20 28 -20 7 0 15 -7 18 -15 4 -8 11 -15 18 -15 6 0
21 -23 33 -50 12 -28 28 -50 36 -50 15 0 47 -61 47 -90 0 -11 7 -20 15 -20 18
0 50 -61 59 -112 4 -20 10 -38 14 -40 14 -6 42 -101 53 -183 8 -53 17 -85 24
-85 19 0 25 -97 25 -390 0 -335 -8 -480 -27 -480 -9 0 -13 -14 -13 -42 0 -56
-43 -232 -61 -250 -8 -8 -25 -38 -39 -66 -14 -28 -30 -51 -35 -52 -6 0 -19
-11 -29 -25 -10 -14 -25 -25 -32 -25 -8 0 -14 -4 -14 -9 0 -13 -56 -71 -69
-71 -6 0 -11 -7 -11 -15 0 -8 -14 -17 -35 -21 -19 -3 -35 -10 -35 -15 0 -5
-27 -9 -59 -9 -43 0 -60 4 -65 15 -3 8 -12 15 -19 15 -9 0 -23 27 -36 70 -12
39 -27 70 -32 70 -5 0 -9 66 -9 155 0 85 4 155 9 155 4 0 11 33 14 73 4 39 15
151 27 247 11 96 20 190 20 208 0 17 5 32 10 32 6 0 10 65 10 175 0 96 -4 175
-9 175 -4 0 -11 24 -14 54 -6 56 -43 156 -58 156 -5 0 -9 4 -9 10 0 21 -36 50
-62 50 -16 0 -28 5 -28 10 0 6 -40 10 -100 10 -55 0 -100 -4 -100 -9 0 -5 -25
-13 -55 -16 -30 -4 -55 -11 -55 -16 0 -5 -9 -9 -20 -9 -11 0 -20 -7 -20 -15 0
-8 -7 -15 -15 -15 -8 0 -15 -4 -15 -10 0 -5 -8 -10 -18 -10 -10 0 -24 -9 -32
-20 -8 -10 -28 -22 -44 -26 -17 -4 -38 -15 -47 -25 -9 -11 -20 -19 -23 -19 -9
0 -36 -26 -36 -35 0 -11 -28 -35 -40 -35 -11 0 -110 -94 -110 -105 0 -11 -41
-45 -54 -45 -8 0 -18 -9 -21 -20 -3 -11 -10 -20 -15 -20 -5 0 -12 -9 -15 -20
-3 -11 -12 -20 -18 -20 -14 0 -47 -35 -47 -50 0 -6 -4 -10 -9 -10 -5 0 -13 -9
-16 -20 -3 -11 -12 -20 -19 -20 -7 0 -19 -11 -26 -25 -7 -14 -19 -25 -25 -25
-7 0 -19 -15 -26 -32 -7 -18 -25 -45 -39 -59 -32 -34 -60 -71 -60 -81 0 -4 -6
-8 -13 -8 -7 0 -26 -27 -42 -60 -16 -33 -34 -60 -40 -60 -6 0 -18 -11 -25 -25
-7 -14 -17 -25 -22 -25 -4 0 -8 -6 -8 -14 0 -8 -12 -27 -27 -44 -49 -53 -63
-72 -63 -84 0 -22 -53 -118 -65 -118 -6 0 -22 -23 -36 -52 -13 -28 -29 -56
-34 -62 -21 -22 -65 -105 -65 -123 0 -10 -11 -26 -24 -37 -14 -10 -32 -40 -42
-71 -9 -30 -23 -56 -30 -59 -8 -3 -14 -11 -14 -18 0 -16 -42 -119 -55 -136 -5
-7 -16 -19 -22 -27 -7 -7 -13 -20 -13 -27 0 -8 -9 -24 -20 -36 -11 -12 -20
-28 -20 -35 0 -8 -11 -40 -25 -71 -14 -31 -25 -63 -25 -71 0 -8 -4 -15 -8 -15
-4 0 -16 -27 -25 -60 -10 -33 -22 -60 -27 -60 -4 0 -11 -12 -15 -27 -3 -15
-10 -30 -13 -33 -10 -7 -43 -97 -54 -150 -6 -25 -16 -49 -23 -55 -6 -5 -22
-49 -36 -97 -13 -49 -28 -88 -34 -88 -6 0 -24 -53 -40 -117 -16 -65 -32 -120
-36 -123 -4 -3 -17 -47 -30 -97 -12 -51 -26 -93 -31 -93 -4 0 -8 -13 -8 -29 0
-16 -5 -31 -10 -33 -6 -2 -20 -55 -32 -118 -11 -63 -24 -117 -28 -120 -8 -5
-29 -128 -51 -287 -7 -51 -16 -93 -20 -93 -4 0 -10 -39 -14 -87 -4 -49 -11
-90 -15 -93 -13 -8 -30 -309 -30 -537 0 -214 15 -454 30 -463 4 -3 11 -35 14
-72 4 -38 11 -68 15 -68 7 0 22 -53 41 -152 6 -32 17 -64 24 -70 6 -7 20 -39
30 -71 10 -32 24 -64 32 -72 8 -7 14 -21 14 -29 0 -9 5 -16 10 -16 6 0 19 -20
30 -45 11 -25 32 -58 49 -74 16 -15 32 -38 36 -50 3 -11 13 -21 21 -21 8 0 14
-5 14 -10 0 -11 56 -70 66 -70 3 0 19 -13 34 -30 15 -16 33 -30 39 -30 6 0 11
-4 11 -9 0 -5 23 -12 50 -16 33 -5 50 -12 50 -21 0 -8 9 -14 20 -14 11 0 20
-4 20 -10 0 -5 18 -10 40 -10 22 0 40 -4 40 -10 0 -6 62 -10 165 -10 103 0
165 4 165 10 0 6 16 10 35 10 19 0 35 5 35 10 0 6 16 10 35 10 23 0 35 5 35
14 0 9 17 16 50 21 28 4 50 11 50 16 0 5 11 9 25 9 14 0 25 5 25 10 0 6 9 10
20 10 11 0 20 5 20 10 0 6 7 10 15 10 8 0 15 5 15 10 0 6 9 10 20 10 11 0 20
4 20 9 0 5 16 12 35 15 19 4 35 11 35 16 0 6 7 10 15 10 8 0 15 7 15 15 0 8 6
15 13 15 7 0 19 9 27 20 8 11 20 20 27 20 7 0 13 5 13 10 0 6 9 10 19 10 11 0
26 7 35 15 8 8 20 15 26 15 14 0 60 46 60 60 0 5 10 10 21 10 12 0 32 11 45
25 13 14 26 25 30 25 7 0 29 25 54 59 8 12 18 21 23 21 5 0 37 29 72 65 34 36
66 65 70 65 8 0 35 26 35 35 0 10 28 35 39 35 6 0 11 4 11 9 0 11 47 61 58 61
5 0 16 15 23 33 17 41 39 67 58 67 14 0 51 37 51 52 0 4 6 8 13 8 7 0 19 9 27
21 38 54 47 59 97 59 47 0 50 -2 66 -35 9 -20 17 -42 17 -50 0 -8 5 -15 10
-15 6 0 10 -38 10 -95 0 -52 -4 -95 -9 -95 -5 0 -11 -17 -14 -37 -5 -48 -44
-151 -62 -169 -7 -8 -17 -24 -20 -37 -15 -52 -28 -77 -41 -77 -8 0 -26 -27
-41 -60 -14 -33 -32 -60 -40 -60 -8 0 -24 -22 -36 -50 -12 -27 -26 -50 -30
-50 -12 0 -56 -50 -62 -71 -4 -11 -12 -19 -19 -19 -7 0 -21 -18 -32 -40 -10
-22 -25 -40 -31 -40 -7 0 -13 -4 -13 -9 0 -12 -56 -71 -67 -71 -12 0 -40 -34
-48 -59 -3 -12 -12 -21 -20 -21 -8 0 -16 -9 -20 -19 -3 -10 -17 -22 -32 -26
-14 -3 -38 -19 -54 -36 -15 -16 -31 -29 -37 -29 -5 0 -13 -11 -16 -25 -4 -15
-16 -27 -31 -31 -14 -3 -25 -10 -25 -15 0 -5 -6 -9 -13 -9 -7 0 -19 -9 -27
-20 -8 -11 -20 -20 -28 -20 -7 0 -24 -11 -38 -25 -14 -14 -36 -25 -49 -25 -14
0 -25 -5 -25 -11 0 -15 -26 -39 -42 -39 -8 0 -20 -9 -28 -20 -8 -11 -22 -20
-32 -20 -10 0 -18 -4 -18 -9 0 -5 -18 -12 -40 -16 -22 -4 -40 -11 -40 -16 0
-5 -7 -9 -15 -9 -8 0 -15 -7 -15 -15 0 -8 -9 -15 -20 -15 -11 0 -20 -4 -20
-10 0 -5 -11 -10 -25 -10 -14 0 -25 -4 -25 -10 0 -5 -11 -10 -25 -10 -14 0
-25 -4 -25 -9 0 -5 -22 -12 -50 -16 -27 -4 -50 -11 -50 -16 0 -5 -20 -9 -45
-9 -25 0 -45 -4 -45 -10 0 -5 -18 -10 -40 -10 -22 0 -40 -4 -40 -10 0 -6 -62
-10 -165 -10 -103 0 -165 4 -165 10 0 6 -27 10 -60 10 -33 0 -60 4 -60 10 0 6
-9 10 -20 10 -11 0 -20 4 -20 9 0 5 -22 12 -50 16 -27 4 -50 11 -50 16 0 5 -9
9 -20 9 -11 0 -20 5 -20 10 0 6 -9 10 -21 10 -22 0 -49 22 -49 39 0 6 -5 11
-11 11 -6 0 -17 7 -25 15 -9 8 -24 15 -35 15 -10 0 -19 5 -19 10 0 6 -6 10
-13 10 -7 0 -19 9 -27 20 -8 11 -18 20 -23 20 -9 0 -37 25 -37 34 0 8 -38 46
-46 46 -9 0 -64 61 -64 70 0 5 -9 11 -19 15 -11 3 -23 15 -27 27 -3 12 -27 42
-53 69 -61 62 -67 71 -84 110 -8 19 -24 45 -36 58 -11 13 -31 50 -42 83 -12
32 -28 58 -35 58 -8 0 -14 7 -14 16 0 9 -6 28 -14 42 -8 15 -20 47 -27 72 -7
25 -17 47 -21 51 -8 5 -58 220 -58 251 0 10 -6 18 -13 18 -16 0 -39 157 -58
382 -17 201 -6 810 20 1083 11 121 21 228 21 238 0 9 6 17 13 17 9 0 18 41 31
138 22 169 38 265 46 272 3 3 16 59 29 125 32 167 32 165 47 165 9 0 14 11 14
27 0 34 50 246 60 253 4 3 18 47 30 98 12 50 26 92 31 92 4 0 11 20 15 45 3
26 12 52 19 58 7 7 18 31 26 52 8 22 16 42 20 45 3 3 13 32 23 65 9 33 21 68
27 77 5 10 9 27 9 38 0 11 4 20 9 20 5 0 17 25 26 55 8 30 20 55 25 55 6 0 10
11 10 24 0 14 8 32 17 42 17 17 34 54 54 122 6 17 14 32 18 32 5 0 11 10 14
23 12 52 39 112 58 128 10 9 19 21 19 27 0 7 9 26 20 44 11 18 20 43 20 56 0
12 4 22 10 22 11 0 44 63 54 103 3 15 12 27 20 27 7 0 26 28 41 63 15 34 31
64 34 67 4 3 15 23 25 46 9 22 28 53 42 69 13 15 24 39 24 52 0 12 4 23 8 23
5 0 17 16 28 35 10 19 21 35 24 35 4 0 19 27 35 60 16 33 32 60 36 60 4 0 10
9 14 20 3 11 18 32 33 48 15 15 40 53 56 85 16 31 34 57 41 57 8 0 21 20 30
45 10 24 25 47 35 50 10 3 24 20 31 37 7 17 25 43 40 57 14 14 29 36 33 47 8
26 40 64 53 64 5 0 16 11 23 25 7 14 17 25 22 25 4 0 8 6 8 14 0 8 12 27 28
43 15 17 36 42 47 56 11 15 25 27 32 27 6 0 17 15 23 34 7 23 19 36 35 40 14
4 25 11 25 16 0 12 88 100 100 100 6 0 10 5 10 10 0 6 16 26 35 46 19 19 35
39 35 43 0 5 11 12 25 15 14 4 25 11 25 16 0 6 7 10 15 10 8 0 15 7 15 15 0 8
6 15 13 15 7 0 19 9 27 20 8 11 18 20 23 20 7 0 20 9 52 38 7 6 20 12 27 12 8
0 20 9 28 20 8 11 20 20 27 20 7 0 13 7 13 15 0 8 9 15 20 15 11 0 20 4 20 10
0 5 16 12 35 16 19 3 35 10 35 15 0 5 7 9 15 9 8 0 15 5 15 10 0 6 9 10 20 10
11 0 20 5 20 10 0 6 9 10 20 10 11 0 20 5 20 10 0 6 14 10 30 10 17 0 30 4 30
9 0 5 25 12 55 16 38 4 55 11 55 21 0 10 13 14 50 14 28 0 50 5 50 10 0 6 58
10 155 10 97 0 155 -4 155 -10z m13090 -240 c0 -5 11 -10 23 -10 18 0 30 -12
50 -49 15 -27 27 -58 27 -69 0 -11 6 -22 13 -25 16 -5 18 -334 1 -345 -6 -4
-23 -71 -39 -149 -18 -91 -33 -143 -41 -143 -13 0 -13 1 -45 -215 -12 -82 -26
-151 -30 -153 -5 -2 -9 -16 -9 -30 0 -15 -9 -85 -19 -157 -11 -71 -22 -165
-26 -207 -4 -43 -11 -78 -16 -78 -5 0 -9 -18 -9 -40 0 -22 -4 -40 -8 -40 -19
0 -52 -570 -52 -888 0 -78 -4 -142 -8 -142 -5 0 -12 -46 -16 -102 -8 -117 -27
-216 -43 -226 -5 -4 -13 -17 -17 -29 -4 -13 -13 -23 -19 -23 -7 0 -19 -9 -27
-20 -11 -15 -26 -20 -63 -20 -41 0 -52 5 -80 33 -18 18 -38 43 -45 55 -18 32
-42 104 -42 129 0 12 -4 23 -10 25 -18 6 -41 182 -41 323 0 161 31 668 41 675
4 3 10 44 13 91 11 157 51 504 59 507 4 2 8 21 8 43 0 21 4 39 9 39 4 0 11 30
14 68 8 93 39 286 48 292 3 3 19 82 35 175 15 94 32 173 37 176 4 3 13 36 19
72 6 37 14 67 18 67 5 0 14 24 20 53 7 28 16 54 19 57 4 3 17 38 31 78 13 39
26 72 30 72 3 0 12 16 19 35 15 43 52 85 75 85 9 0 16 5 16 10 0 6 18 10 40
10 22 0 40 -4 40 -10z m8100 -139 c0 -4 39 -11 88 -15 48 -3 89 -11 90 -16 2
-6 19 -10 38 -10 19 0 34 -4 34 -10 0 -5 11 -10 25 -10 14 0 25 -4 25 -10 0
-5 11 -10 25 -10 14 0 25 -4 25 -10 0 -5 11 -10 25 -10 15 0 25 -6 25 -15 0
-8 15 -17 38 -21 20 -4 44 -15 53 -26 9 -10 24 -18 33 -18 9 0 16 -4 16 -10 0
-5 7 -10 15 -10 8 0 15 -4 15 -10 0 -5 7 -10 15 -10 8 0 15 -4 15 -9 0 -5 11
-12 25 -15 14 -4 25 -11 25 -16 0 -6 7 -10 15 -10 8 0 15 -5 15 -11 0 -13 25
-39 39 -39 5 0 12 -9 16 -19 3 -10 17 -22 30 -25 13 -3 27 -15 30 -26 3 -11
12 -20 20 -20 8 0 17 -9 20 -21 10 -31 37 -59 56 -59 9 0 22 -13 29 -30 7 -16
16 -30 21 -30 4 0 11 -9 14 -21 4 -12 14 -29 23 -39 27 -29 52 -63 52 -72 0
-4 6 -8 14 -8 15 0 56 -75 56 -103 0 -9 4 -17 9 -17 5 0 21 -26 37 -57 16 -32
32 -59 37 -61 4 -2 7 -8 7 -14 0 -5 6 -16 14 -23 8 -8 22 -40 32 -72 10 -32
21 -60 25 -63 10 -7 46 -112 54 -159 4 -23 11 -41 15 -41 5 0 12 -16 16 -35 3
-19 9 -35 13 -35 6 0 23 -65 37 -142 3 -21 10 -38 14 -38 8 0 11 -19 41 -240
10 -80 19 -164 19 -187 0 -24 5 -43 13 -45 16 -6 18 -895 1 -906 -6 -4 -14
-46 -17 -94 -10 -128 -47 -373 -58 -376 -5 -2 -9 -16 -9 -31 0 -15 -7 -50 -15
-77 -8 -27 -15 -61 -15 -76 0 -14 -5 -28 -10 -30 -6 -2 -13 -21 -17 -43 -3
-22 -11 -45 -17 -51 -6 -6 -22 -55 -35 -110 -14 -54 -27 -101 -30 -104 -8 -7
-42 -99 -49 -130 -3 -14 -12 -32 -21 -40 -20 -19 -51 -85 -51 -110 0 -10 -4
-22 -10 -25 -5 -3 -10 -15 -10 -25 0 -10 -4 -20 -8 -22 -14 -6 -52 -78 -52
-99 0 -10 -6 -19 -14 -19 -8 0 -26 -30 -42 -67 -16 -38 -31 -70 -35 -73 -3 -3
-19 -27 -34 -55 -16 -27 -36 -57 -45 -65 -8 -8 -27 -36 -40 -62 -14 -27 -28
-48 -31 -48 -3 0 -17 -22 -30 -50 -13 -27 -29 -50 -36 -50 -6 0 -14 -8 -18
-19 -3 -10 -17 -32 -31 -47 -39 -46 -44 -53 -44 -64 0 -5 -4 -10 -8 -10 -5 0
-15 -11 -22 -25 -7 -14 -19 -25 -25 -25 -7 0 -18 -13 -25 -30 -7 -16 -18 -30
-24 -30 -6 0 -18 -9 -26 -21 -8 -11 -23 -30 -32 -41 -10 -11 -20 -29 -23 -39
-4 -11 -11 -19 -16 -19 -6 0 -20 -11 -33 -25 -13 -14 -31 -25 -40 -25 -9 0
-16 -6 -16 -13 0 -8 -9 -24 -20 -37 -11 -13 -20 -26 -20 -30 0 -5 -11 -11 -25
-14 -14 -4 -25 -10 -25 -15 0 -13 -36 -51 -49 -51 -6 0 -11 -5 -11 -11 0 -13
-38 -49 -53 -49 -5 0 -22 -13 -37 -30 -15 -16 -33 -30 -39 -30 -6 0 -11 -4
-11 -10 0 -5 -5 -10 -11 -10 -6 0 -28 -18 -49 -40 -21 -22 -43 -40 -49 -40 -6
0 -11 -4 -11 -10 0 -5 -6 -10 -13 -10 -7 0 -19 -9 -27 -20 -8 -10 -27 -22 -42
-25 -15 -4 -28 -11 -28 -16 0 -5 -7 -9 -15 -9 -8 0 -15 -7 -15 -15 0 -8 -5
-15 -11 -15 -6 0 -23 -13 -38 -28 -15 -17 -42 -32 -64 -36 -20 -4 -37 -11 -37
-16 0 -6 -7 -10 -15 -10 -8 0 -15 -4 -15 -10 0 -5 -7 -10 -15 -10 -8 0 -15 -4
-15 -10 0 -5 -11 -10 -25 -10 -14 0 -25 -5 -25 -11 0 -18 -24 -36 -58 -44 -18
-3 -32 -11 -32 -16 0 -5 -9 -9 -20 -9 -11 0 -20 -4 -20 -10 0 -5 -9 -10 -20
-10 -11 0 -20 -4 -20 -10 0 -5 -9 -10 -20 -10 -11 0 -20 -4 -20 -10 0 -5 -7
-10 -15 -10 -8 0 -15 -4 -15 -9 0 -5 -18 -12 -40 -16 -25 -4 -40 -12 -40 -21
0 -8 -10 -14 -25 -14 -14 0 -25 -4 -25 -10 0 -5 -7 -10 -15 -10 -8 0 -15 -4
-15 -10 0 -5 -11 -10 -25 -10 -14 0 -25 -4 -25 -10 0 -5 -13 -10 -30 -10 -16
0 -30 -4 -30 -9 0 -5 -18 -12 -40 -16 -22 -4 -40 -11 -40 -16 0 -5 -13 -9 -30
-9 -20 0 -30 -5 -30 -15 0 -8 -9 -15 -20 -15 -11 0 -20 -4 -20 -10 0 -5 -11
-10 -25 -10 -14 0 -25 -4 -25 -10 0 -5 -11 -10 -25 -10 -14 0 -25 -4 -25 -9 0
-5 -20 -12 -45 -15 -25 -4 -45 -11 -45 -17 0 -5 -11 -9 -25 -9 -14 0 -25 -4
-25 -10 0 -5 -9 -10 -20 -10 -11 0 -20 -4 -20 -10 0 -5 -9 -10 -20 -10 -11 0
-20 -7 -20 -15 0 -8 -9 -15 -20 -15 -11 0 -20 -4 -20 -9 0 -5 -18 -12 -40 -16
-22 -4 -40 -11 -40 -16 0 -5 -6 -9 -13 -9 -7 0 -19 -9 -27 -20 -8 -11 -20 -20
-28 -20 -7 0 -24 -11 -38 -25 -14 -14 -34 -25 -44 -25 -11 0 -20 -5 -20 -10 0
-14 -46 -60 -59 -60 -5 0 -13 -9 -16 -20 -3 -11 -10 -20 -14 -20 -13 0 -51
-36 -51 -49 0 -6 -6 -11 -13 -11 -7 0 -19 -9 -27 -20 -8 -11 -18 -20 -23 -20
-7 0 -20 -9 -52 -37 -7 -7 -18 -13 -24 -13 -6 0 -11 -4 -11 -10 0 -5 -9 -10
-20 -10 -11 0 -20 -4 -20 -10 0 -5 -9 -10 -20 -10 -11 0 -20 -7 -20 -15 0 -12
-16 -15 -80 -15 -64 0 -80 3 -80 15 0 8 -4 15 -9 15 -5 0 -13 9 -16 20 -3 11
-12 20 -19 20 -7 0 -24 20 -37 45 -13 25 -30 45 -36 45 -7 0 -13 8 -13 18 0 9
-11 50 -25 90 -14 41 -25 87 -25 103 0 16 -4 29 -10 29 -6 0 -10 30 -10 70 0
39 4 70 9 70 9 0 45 137 57 218 4 23 12 42 19 42 7 0 18 20 24 44 13 53 41
257 41 304 0 17 4 32 9 32 11 0 18 136 36 670 23 673 27 780 35 780 4 0 11 88
15 195 4 107 11 195 14 195 4 0 16 158 26 350 10 193 22 350 25 350 4 0 10 55
13 123 18 346 51 833 57 837 4 3 13 98 20 213 7 114 16 207 20 207 4 0 10 46
14 102 4 57 11 105 15 108 11 7 31 305 31 456 0 116 -12 184 -31 184 -5 0 -9
7 -9 15 0 8 -6 15 -13 15 -7 0 -19 9 -27 20 -8 11 -20 20 -27 20 -7 0 -13 4
-13 10 0 5 -16 12 -35 16 -19 3 -35 10 -35 15 0 5 -9 9 -20 9 -11 0 -20 5 -20
10 0 6 -6 10 -14 10 -8 0 -18 9 -21 21 -4 12 -14 30 -24 41 -9 11 -24 29 -33
40 -24 28 -32 95 -24 212 5 70 11 104 21 112 8 6 15 15 15 20 0 21 53 144 62
144 12 0 32 20 47 48 6 12 18 22 26 22 8 0 15 7 15 15 0 8 9 15 20 15 11 0 20
5 20 10 0 7 145 10 415 10 270 0 415 3 415 10 0 6 38 10 95 10 57 0 95 4 95
10 0 6 35 10 85 10 47 0 85 4 85 9 0 5 83 12 185 16 102 4 185 11 185 16 0 5
124 9 275 9 151 0 275 -4 275 -9z m-33500 -51 c0 -6 32 -10 75 -10 43 0 75 -4
75 -10 0 -5 20 -10 45 -10 25 0 45 -4 45 -10 0 -5 11 -10 25 -10 16 0 25 -6
25 -15 0 -9 9 -15 24 -15 50 0 126 -108 126 -180 0 -16 6 -30 13 -32 16 -6 18
-335 1 -346 -6 -4 -19 -28 -29 -54 -14 -39 -22 -48 -41 -48 -13 0 -24 -4 -24
-10 0 -6 -37 -10 -90 -10 -53 0 -90 4 -90 10 0 6 -30 10 -70 10 -40 0 -70 4
-70 10 0 6 -133 10 -380 10 -247 0 -380 -4 -380 -10 0 -6 -33 -10 -80 -10 -47
0 -80 -4 -80 -10 0 -6 -30 -10 -70 -10 -38 0 -70 -4 -70 -9 0 -5 -47 -12 -105
-16 -58 -4 -105 -11 -105 -16 0 -5 -13 -9 -30 -9 -16 0 -30 -4 -30 -10 0 -5
-13 -10 -30 -10 -16 0 -30 -4 -30 -10 0 -5 -13 -10 -30 -10 -16 0 -30 -5 -30
-11 0 -16 -23 -35 -51 -42 -17 -4 -31 -18 -39 -37 -7 -16 -16 -30 -20 -30 -11
0 -29 -107 -36 -218 -4 -51 -11 -92 -15 -92 -5 0 -9 -31 -9 -69 0 -38 -4 -71
-8 -73 -8 -3 -63 -838 -62 -940 0 -25 -4 -48 -8 -50 -8 -3 -41 -601 -59 -1060
-4 -112 -10 -158 -18 -158 -9 0 -16 -106 -26 -402 -28 -794 -13 -1738 26
-1738 17 0 38 -244 30 -354 -8 -119 -14 -146 -30 -146 -9 0 -16 -17 -20 -48
-9 -65 -31 -124 -60 -158 -14 -16 -25 -35 -25 -41 0 -7 -7 -13 -15 -13 -8 0
-15 -4 -15 -10 0 -6 -30 -10 -70 -10 -40 0 -70 4 -70 10 0 6 -11 10 -25 10
-14 0 -25 5 -25 10 0 12 -37 50 -48 50 -5 0 -19 24 -33 52 -13 29 -27 55 -30
58 -9 7 -39 114 -39 138 0 11 -4 22 -10 24 -5 2 -13 39 -16 83 -4 44 -11 82
-15 85 -15 10 -29 417 -29 869 0 462 18 1131 31 1131 3 0 10 98 14 218 4 119
11 219 15 222 4 3 15 165 25 360 10 195 21 357 25 360 4 3 10 59 13 125 20
368 51 831 57 835 4 3 15 146 25 318 11 171 23 312 27 312 4 0 8 47 8 105 0
63 -4 105 -10 105 -5 0 -10 7 -10 16 0 39 -22 44 -194 44 -104 0 -166 -4 -166
-10 0 -6 -33 -10 -80 -10 -47 0 -80 -4 -80 -10 0 -6 -32 -10 -75 -10 -43 0
-75 -4 -75 -10 0 -6 -28 -10 -65 -10 -37 0 -65 -4 -65 -10 0 -6 -30 -10 -70
-10 -40 0 -70 -4 -70 -10 0 -6 -35 -10 -85 -10 -50 0 -85 -4 -85 -10 0 -6 -88
-10 -245 -10 -157 0 -245 4 -245 10 0 6 -17 10 -38 10 -26 0 -42 6 -52 20 -8
11 -21 20 -29 20 -14 0 -51 37 -51 52 0 4 -9 8 -20 8 -33 0 -45 66 -45 246 0
140 3 166 20 202 11 23 26 42 33 42 6 0 12 4 12 8 0 16 37 52 53 52 8 0 17 4
19 10 2 5 45 13 96 16 50 4 92 11 92 15 0 5 70 9 155 9 131 0 155 2 155 15 0
13 38 15 285 15 183 0 285 4 285 10 0 6 45 10 115 10 70 0 115 4 115 10 0 6
33 10 80 10 44 0 80 4 80 9 0 4 60 11 133 15 72 4 134 12 135 17 2 5 28 9 58
9 30 0 54 5 54 10 0 6 27 10 60 10 33 0 60 4 60 10 0 6 23 10 50 10 38 0 50 4
50 15 0 11 12 15 45 15 25 0 45 4 45 9 0 5 45 12 100 16 55 3 100 11 100 16 0
5 23 9 50 9 28 0 50 5 50 10 0 6 23 10 50 10 28 0 50 5 50 10 0 6 20 10 45 10
25 0 45 5 45 10 0 6 20 10 45 10 25 0 45 4 45 9 0 5 41 13 90 17 66 5 90 10
90 20 0 10 16 14 60 14 33 0 60 4 60 10 0 6 25 10 55 10 30 0 55 5 55 10 0 6
28 10 65 10 37 0 65 4 65 10 0 6 88 10 245 10 157 0 245 -4 245 -10z m27780
-1310 c0 -5 11 -10 25 -10 16 0 25 -6 25 -15 0 -9 9 -15 25 -15 14 0 25 -4 25
-10 0 -5 9 -10 20 -10 10 0 24 -6 30 -12 5 -7 23 -28 40 -46 26 -30 50 -86 50
-119 0 -6 5 -13 10 -15 6 -2 14 -29 17 -61 3 -31 10 -57 14 -57 5 0 9 -58 9
-130 0 -80 -4 -130 -10 -130 -5 0 -10 -15 -10 -33 0 -22 -9 -44 -25 -63 -14
-16 -28 -37 -31 -46 -3 -10 -10 -18 -15 -18 -5 0 -9 -7 -9 -15 0 -8 -11 -26
-25 -40 -37 -36 -113 -36 -149 0 -14 14 -30 25 -36 25 -5 0 -10 5 -10 11 0 13
-25 39 -38 39 -6 0 -12 6 -15 13 -5 16 -189 16 -195 -1 -2 -7 -12 -12 -23 -12
-10 0 -19 -4 -19 -10 0 -5 -7 -10 -15 -10 -8 0 -15 -7 -15 -15 0 -8 -7 -15
-15 -15 -8 0 -15 -4 -15 -10 0 -5 -9 -10 -20 -10 -11 0 -20 -4 -20 -10 0 -5
-12 -13 -27 -16 -16 -4 -35 -15 -44 -26 -9 -10 -24 -18 -33 -18 -9 0 -16 -4
-16 -10 0 -5 -5 -10 -11 -10 -13 0 -39 -25 -39 -38 0 -5 -11 -13 -25 -16 -14
-4 -25 -11 -25 -16 0 -6 -8 -10 -18 -10 -10 0 -24 -9 -32 -20 -8 -11 -20 -20
-27 -20 -7 0 -13 -4 -13 -10 0 -5 -7 -10 -15 -10 -8 0 -15 -4 -15 -9 0 -5 -9
-13 -20 -16 -11 -3 -20 -11 -20 -16 0 -5 -16 -25 -35 -45 -19 -19 -35 -39 -35
-44 0 -6 -8 -10 -17 -10 -17 0 -63 -45 -63 -62 0 -4 -13 -22 -30 -40 -16 -17
-30 -34 -30 -38 0 -5 -12 -21 -27 -37 -16 -17 -37 -56 -48 -89 -10 -32 -23
-62 -27 -65 -16 -11 -38 -163 -38 -264 0 -108 23 -258 40 -263 5 -2 10 -9 10
-16 0 -22 42 -116 51 -116 5 0 9 -5 9 -10 0 -11 3 -16 45 -63 14 -15 25 -32
25 -38 0 -5 6 -9 14 -9 8 0 20 -16 27 -35 7 -19 22 -38 33 -41 22 -7 76 -60
76 -75 0 -5 7 -9 15 -9 8 0 15 -4 15 -10 0 -5 11 -12 24 -16 15 -3 27 -15 30
-30 4 -13 12 -24 19 -24 7 0 19 -9 27 -20 8 -11 18 -20 23 -20 7 0 20 -9 52
-37 7 -7 18 -13 24 -13 6 0 11 -4 11 -10 0 -5 7 -10 15 -10 8 0 15 -5 15 -11
0 -11 25 -39 35 -39 6 0 19 -10 50 -37 7 -7 17 -13 22 -13 5 0 15 -9 23 -20 8
-11 20 -20 27 -20 7 0 13 -4 13 -10 0 -5 7 -10 15 -10 8 0 15 -7 15 -15 0 -8
11 -17 25 -21 14 -3 25 -10 25 -14 0 -12 57 -70 69 -70 6 0 11 -4 11 -9 0 -5
9 -12 19 -16 10 -3 22 -17 25 -30 4 -14 13 -25 21 -25 8 0 15 -4 15 -8 0 -16
46 -62 62 -62 8 0 22 -15 29 -32 7 -18 26 -46 41 -62 15 -16 28 -32 28 -36 0
-5 14 -22 30 -40 17 -18 30 -41 30 -51 0 -10 4 -19 9 -19 5 0 14 -13 21 -30 7
-16 16 -30 20 -30 8 0 20 -28 45 -110 9 -30 20 -57 24 -60 17 -13 41 -224 41
-361 0 -139 -22 -357 -38 -369 -4 -3 -16 -32 -26 -65 -35 -111 -40 -125 -47
-125 -4 0 -12 -13 -19 -30 -7 -16 -16 -30 -21 -30 -5 0 -9 -6 -9 -14 0 -7 -10
-24 -22 -37 -13 -14 -32 -44 -42 -67 -10 -23 -25 -42 -33 -42 -7 0 -17 -8 -20
-17 -10 -25 -102 -113 -118 -113 -8 0 -17 -10 -21 -22 -9 -28 -49 -68 -69 -68
-8 0 -15 -4 -15 -10 0 -5 -12 -13 -27 -16 -16 -4 -40 -20 -55 -36 -14 -15 -35
-28 -47 -28 -12 0 -21 -6 -21 -15 0 -8 -7 -15 -15 -15 -8 0 -15 -4 -15 -10 0
-5 -9 -10 -19 -10 -11 0 -26 -7 -35 -15 -8 -8 -22 -15 -30 -15 -9 0 -16 -4
-16 -10 0 -5 -9 -10 -20 -10 -11 0 -20 -4 -20 -10 0 -5 -8 -10 -18 -10 -10 0
-24 -9 -31 -19 -9 -13 -32 -22 -63 -26 -31 -5 -48 -12 -48 -21 0 -8 -10 -14
-25 -14 -14 0 -25 -4 -25 -10 0 -5 -9 -10 -20 -10 -11 0 -20 -4 -20 -10 0 -5
-9 -10 -20 -10 -11 0 -20 -4 -20 -10 0 -5 -13 -10 -30 -10 -16 0 -30 -4 -30
-9 0 -5 -34 -12 -75 -16 -41 -4 -75 -11 -75 -16 0 -5 -16 -9 -35 -9 -24 0 -35
-5 -35 -15 0 -12 -13 -15 -60 -15 -33 0 -60 -4 -60 -10 0 -6 -68 -10 -185 -10
-117 0 -185 4 -185 10 0 6 -16 10 -35 10 -24 0 -35 5 -35 15 0 8 -7 15 -15 15
-8 0 -15 5 -15 10 0 6 -9 10 -20 10 -37 0 -140 128 -140 174 0 9 -4 16 -9 16
-14 0 -31 118 -31 219 0 92 14 174 34 199 41 48 66 72 76 72 6 0 18 7 26 15 9
8 24 15 35 15 10 0 19 5 19 10 0 6 16 10 35 10 24 0 35 5 35 15 0 11 12 15 50
15 38 0 50 -4 50 -15 0 -10 11 -15 35 -15 19 0 35 -4 35 -9 0 -5 23 -11 50
-15 28 -4 50 -11 50 -16 0 -6 62 -10 155 -10 85 0 155 4 155 9 0 4 37 11 83
15 45 4 84 11 85 16 2 6 19 10 38 10 24 0 34 5 34 15 0 10 10 15 30 15 17 0
30 5 30 10 0 6 9 10 20 10 11 0 20 5 20 10 0 6 14 10 30 10 17 0 30 4 30 9 0
5 18 12 40 16 22 4 40 11 40 16 0 5 9 9 20 9 11 0 20 5 20 10 0 6 9 10 20 10
11 0 20 5 20 10 0 6 7 10 15 10 8 0 15 7 15 15 0 8 7 15 15 15 8 0 15 4 15 9
0 5 10 13 23 17 12 4 29 15 38 25 9 11 26 19 37 19 12 0 23 9 27 20 3 11 10
20 15 20 5 0 12 9 15 20 3 11 12 20 19 20 7 0 23 22 36 49 12 27 31 51 40 54
40 10 36 236 -4 237 -6 0 -24 30 -40 65 -16 36 -32 65 -36 65 -3 0 -17 22 -30
49 -15 33 -31 51 -46 55 -12 3 -26 16 -30 28 -7 23 -60 78 -74 78 -5 0 -12 9
-15 20 -3 11 -13 20 -21 20 -8 0 -14 5 -14 10 0 6 -5 10 -11 10 -14 0 -39 25
-39 39 0 6 -4 11 -10 11 -5 0 -20 11 -34 25 -14 14 -29 25 -33 25 -5 0 -15 9
-23 20 -8 11 -20 20 -27 20 -7 0 -13 5 -13 10 0 6 -7 10 -15 10 -9 0 -19 8
-22 18 -8 19 -28 42 -38 42 -4 0 -19 13 -33 28 -15 16 -39 32 -54 35 -15 4
-30 16 -33 27 -3 11 -11 20 -16 20 -5 0 -9 7 -9 15 0 8 -6 15 -13 15 -7 0 -21
11 -31 25 -10 14 -25 25 -32 25 -8 0 -14 5 -14 10 0 6 -5 10 -11 10 -13 0 -49
38 -49 52 0 4 -7 8 -15 8 -8 0 -15 5 -15 10 0 13 -37 50 -49 50 -5 0 -13 9
-16 20 -3 11 -12 20 -20 20 -8 0 -16 9 -20 19 -3 10 -16 22 -28 25 -14 3 -27
18 -36 41 -7 19 -18 35 -25 35 -7 0 -18 11 -24 25 -6 14 -16 25 -22 25 -18 0
-36 22 -57 71 -11 24 -27 52 -36 60 -18 19 -67 117 -67 136 0 7 -7 13 -15 13
-8 0 -18 16 -24 38 -24 88 -41 169 -41 195 0 15 -4 27 -10 27 -6 0 -10 73 -10
200 0 110 4 200 9 200 4 0 11 33 14 73 9 118 49 327 62 327 7 0 22 41 35 96
13 53 28 101 34 107 6 7 17 30 24 52 22 66 45 115 54 115 4 0 8 9 8 20 0 10 6
23 13 27 7 4 19 23 26 40 7 18 24 45 37 60 13 16 31 47 40 71 9 23 22 42 28
42 6 1 20 12 31 26 11 14 32 39 48 56 15 16 27 36 27 43 0 8 9 16 19 20 11 3
23 15 26 26 4 10 10 19 15 19 5 0 12 9 15 20 3 11 13 20 21 20 16 0 54 30 54
43 0 12 27 37 39 37 6 0 11 4 11 8 0 15 36 52 50 52 14 0 70 55 70 68 0 4 10
14 21 22 12 8 27 21 35 28 7 6 17 12 23 12 6 0 11 5 11 10 0 6 7 10 15 10 8 0
15 5 15 10 0 6 7 10 16 10 9 0 29 14 44 30 15 17 32 30 37 30 5 0 15 9 23 20
8 11 22 20 32 20 10 0 18 5 18 10 0 6 9 10 20 10 11 0 20 5 20 10 0 6 7 10 15
10 8 0 15 4 15 9 0 5 18 12 40 16 22 4 40 11 40 16 0 5 9 9 20 9 11 0 20 7 20
15 0 11 12 15 45 15 25 0 45 5 45 10 0 6 48 10 125 10 77 0 125 -4 125 -10z
m-22060 -160 c0 -5 9 -10 20 -10 11 0 20 -4 20 -10 0 -5 8 -10 18 -10 10 0 24
-9 32 -20 8 -11 19 -20 25 -20 5 0 23 -16 40 -35 16 -19 35 -35 41 -35 6 0 19
-19 28 -42 9 -24 27 -56 41 -72 14 -16 25 -35 25 -41 0 -21 33 -120 42 -126 5
-3 11 -35 15 -72 3 -37 10 -67 14 -67 5 0 9 -85 9 -190 0 -104 -4 -190 -9
-190 -4 0 -11 -42 -15 -92 -4 -51 -11 -95 -15 -98 -7 -4 -34 -127 -48 -217 -3
-18 -9 -33 -13 -33 -4 0 -16 -30 -25 -67 -10 -38 -22 -72 -27 -78 -4 -5 -8
-17 -8 -27 0 -10 -6 -18 -14 -18 -8 0 -17 -14 -21 -32 -4 -18 -11 -37 -15 -43
-4 -5 -10 -22 -14 -37 -3 -15 -12 -33 -19 -40 -12 -13 -22 -32 -52 -105 -10
-24 -25 -45 -34 -48 -9 -3 -27 -30 -39 -59 -13 -30 -29 -57 -36 -59 -7 -3 -23
-30 -36 -61 -16 -40 -29 -58 -45 -62 -13 -3 -29 -19 -35 -35 -7 -16 -16 -29
-21 -29 -4 0 -11 -10 -15 -22 -3 -13 -13 -30 -21 -38 -31 -34 -53 -63 -58 -81
-4 -11 -13 -19 -21 -19 -8 0 -18 -8 -21 -17 -4 -10 -17 -28 -29 -40 -12 -12
-25 -32 -29 -43 -3 -11 -13 -20 -21 -20 -8 0 -20 -11 -26 -25 -6 -14 -15 -25
-19 -25 -4 0 -10 -11 -13 -25 -4 -16 -13 -25 -26 -25 -11 0 -20 -4 -20 -8 0
-4 -16 -26 -35 -48 -52 -59 -55 -62 -55 -74 0 -5 -7 -10 -15 -10 -16 0 -65
-46 -65 -60 0 -6 -6 -10 -14 -10 -8 0 -17 -9 -21 -19 -3 -11 -15 -23 -26 -26
-10 -4 -19 -11 -19 -16 0 -13 -26 -39 -39 -39 -5 0 -12 -8 -15 -18 -3 -10 -16
-24 -27 -32 -37 -26 -69 -60 -69 -75 0 -8 -7 -15 -15 -15 -8 0 -15 -4 -15 -10
0 -5 -5 -10 -10 -10 -12 0 -26 -11 -75 -57 -19 -18 -37 -33 -40 -33 -10 0 -30
-23 -38 -42 -3 -10 -14 -18 -23 -18 -16 0 -74 -55 -74 -71 0 -5 -4 -9 -10 -9
-15 0 -50 -33 -50 -47 0 -7 -8 -13 -17 -13 -17 0 -73 -90 -73 -117 0 -6 -6
-13 -12 -16 -17 -5 -19 -394 -3 -405 6 -4 19 -49 28 -100 20 -105 34 -142 54
-142 7 0 13 -7 13 -16 0 -24 51 -114 65 -114 6 0 17 -16 24 -35 8 -24 19 -35
32 -35 19 0 28 -6 64 -38 7 -6 23 -12 34 -12 12 0 21 -4 21 -10 0 -5 11 -10
25 -10 14 0 25 -4 25 -10 0 -6 57 -10 150 -10 93 0 150 4 150 10 0 6 16 10 35
10 19 0 35 5 35 10 0 6 14 10 30 10 17 0 30 4 30 9 0 6 20 13 45 17 25 3 45
10 45 15 0 5 7 9 15 9 8 0 15 5 15 10 0 6 7 10 16 10 15 0 44 23 44 35 0 14
31 36 59 41 17 4 31 10 31 15 0 5 5 9 11 9 13 0 69 58 69 71 0 5 7 9 15 9 8 0
15 5 15 10 0 6 6 10 14 10 8 0 18 9 21 20 3 11 11 20 17 20 12 0 48 39 48 52
0 4 7 8 15 8 9 0 21 12 28 28 6 15 33 48 60 74 26 26 47 52 47 58 0 5 6 10 13
10 6 0 22 22 35 50 15 32 29 50 41 50 11 0 27 20 46 60 16 33 32 60 36 60 3 0
12 14 20 31 7 18 23 43 36 57 13 14 23 31 23 38 0 8 3 14 8 14 4 0 16 16 26
35 11 19 22 35 26 35 4 0 13 14 20 30 7 17 16 30 21 30 5 0 9 7 9 15 0 9 6 18
14 21 8 3 20 19 26 35 8 17 20 29 31 29 11 0 19 5 19 10 0 16 60 12 77 -5 23
-24 32 -79 33 -198 0 -106 -17 -247 -30 -257 -4 -3 -15 -36 -24 -75 -20 -84
-36 -125 -53 -143 -7 -7 -13 -24 -13 -36 0 -13 -11 -36 -25 -52 -41 -46 -45
-53 -45 -64 0 -13 -50 -113 -60 -120 -3 -3 -15 -20 -25 -37 -11 -18 -23 -33
-27 -33 -4 0 -8 -6 -8 -13 0 -14 -19 -40 -67 -92 -17 -19 -37 -50 -43 -70 -8
-23 -19 -37 -35 -41 -13 -3 -29 -18 -35 -35 -7 -16 -16 -29 -21 -29 -4 0 -10
-9 -14 -19 -3 -11 -14 -22 -24 -26 -9 -3 -23 -21 -30 -40 -7 -19 -17 -35 -22
-35 -6 0 -26 -16 -45 -35 -18 -19 -38 -35 -44 -35 -5 0 -10 -7 -10 -15 0 -18
-66 -85 -83 -85 -7 0 -19 -9 -27 -20 -8 -11 -18 -20 -23 -20 -10 0 -37 -26
-37 -35 0 -11 -25 -32 -48 -39 -12 -4 -22 -12 -22 -17 0 -5 -7 -9 -15 -9 -8 0
-15 -4 -15 -10 0 -5 -8 -10 -18 -10 -10 0 -24 -9 -32 -20 -8 -11 -22 -20 -32
-20 -10 0 -18 -4 -18 -10 0 -5 -18 -13 -40 -16 -24 -4 -40 -12 -40 -20 0 -8
-9 -14 -20 -14 -11 0 -20 -4 -20 -10 0 -5 -11 -10 -25 -10 -14 0 -25 -4 -25
-10 0 -5 -13 -10 -30 -10 -16 0 -30 -4 -30 -10 0 -5 -18 -10 -40 -10 -22 0
-40 -4 -40 -10 0 -6 -65 -10 -175 -10 -110 0 -175 4 -175 10 0 6 -20 10 -45
10 -25 0 -45 5 -45 10 0 6 -9 10 -20 10 -11 0 -20 5 -20 10 0 6 -9 10 -20 10
-11 0 -20 5 -20 10 0 6 -13 10 -30 10 -19 0 -30 5 -30 14 0 8 -12 17 -27 21
-26 6 -63 39 -63 57 0 4 -7 8 -15 8 -8 0 -15 5 -15 10 0 6 -7 10 -15 10 -8 0
-15 4 -15 10 0 5 -11 12 -23 16 -17 4 -30 21 -46 60 -13 30 -27 54 -32 54 -14
0 -57 48 -65 72 -3 13 -9 25 -13 28 -10 9 -38 74 -45 107 -4 18 -13 36 -19 40
-15 10 -32 61 -48 141 -6 34 -16 62 -20 62 -5 0 -9 7 -9 15 0 8 -4 15 -9 15
-9 0 -12 16 -41 230 -11 80 -20 171 -20 203 0 31 -4 57 -10 57 -6 0 -10 115
-10 325 0 210 4 325 10 325 6 0 10 24 10 53 0 119 49 567 62 567 4 0 8 16 8
35 0 19 4 35 9 35 4 0 13 35 20 78 19 129 35 207 42 212 4 3 19 64 34 135 15
72 31 132 34 135 4 3 13 31 21 63 7 31 17 57 21 57 4 0 10 18 14 40 4 22 12
46 19 53 7 6 23 50 36 97 13 47 27 87 31 90 8 6 39 96 39 115 0 8 10 24 23 37
12 13 35 62 51 110 15 48 34 89 42 92 8 3 14 12 14 20 0 27 43 126 55 126 11
0 25 28 55 108 7 17 16 32 20 32 5 0 20 32 35 70 15 39 32 70 39 70 6 0 22 20
36 45 14 25 28 45 31 45 4 0 10 11 13 25 4 14 22 41 41 60 18 20 37 44 40 55
4 11 11 20 16 20 5 0 9 7 9 16 0 9 9 18 19 21 11 3 25 18 31 34 7 16 16 29 21
29 4 0 10 9 14 19 3 11 14 23 25 26 10 3 21 17 24 30 4 14 11 25 17 25 5 0 25
16 45 35 19 19 39 35 45 35 11 0 59 45 59 55 0 13 26 32 53 39 15 3 27 11 27
16 0 6 9 10 20 10 11 0 20 5 20 10 0 6 7 10 15 10 8 0 15 5 15 10 0 6 9 10 20
10 11 0 20 5 20 10 0 6 9 10 20 10 11 0 20 5 20 10 0 6 14 10 30 10 17 0 30 5
30 10 0 6 16 10 35 10 19 0 35 5 35 10 0 6 52 10 135 10 83 0 135 -4 135 -10z
m31640 0 c0 -5 9 -10 20 -10 11 0 20 -4 20 -10 0 -5 7 -10 15 -10 8 0 15 -4
15 -10 0 -5 7 -10 15 -10 8 0 15 -4 15 -10 0 -5 6 -10 13 -10 7 0 19 -9 27
-20 8 -11 20 -20 26 -20 7 0 24 -25 39 -55 14 -30 38 -68 54 -84 18 -18 32
-46 36 -71 4 -22 13 -46 20 -53 29 -30 40 -129 40 -377 0 -230 -15 -416 -34
-430 -7 -5 -26 -91 -38 -167 -3 -18 -9 -33 -13 -33 -5 0 -11 -13 -15 -30 -4
-16 -10 -30 -15 -30 -4 0 -11 -17 -15 -37 -4 -21 -10 -42 -14 -48 -4 -5 -14
-32 -21 -60 -7 -27 -19 -54 -27 -58 -7 -4 -13 -13 -13 -20 0 -27 -36 -98 -52
-103 -10 -3 -18 -12 -18 -21 0 -14 -48 -112 -61 -123 -3 -3 -18 -29 -34 -57
-15 -29 -33 -53 -40 -53 -6 0 -21 -22 -32 -50 -12 -28 -28 -50 -36 -50 -8 0
-25 -24 -38 -55 -16 -37 -31 -57 -46 -61 -12 -3 -27 -20 -34 -37 -7 -17 -25
-42 -40 -56 -14 -14 -29 -36 -33 -48 -4 -13 -13 -23 -20 -23 -8 0 -19 -13 -26
-30 -7 -16 -17 -30 -23 -30 -12 0 -67 -56 -67 -69 0 -5 -25 -35 -55 -66 -30
-31 -55 -60 -55 -65 0 -6 -7 -10 -15 -10 -8 0 -15 -4 -15 -10 0 -13 -37 -50
-49 -50 -5 0 -13 -9 -16 -20 -3 -11 -10 -20 -15 -20 -5 0 -11 -8 -15 -19 -3
-10 -18 -21 -34 -24 -20 -4 -31 -14 -35 -32 -4 -14 -13 -25 -21 -25 -8 0 -15
-4 -15 -8 0 -14 -45 -62 -58 -62 -7 0 -12 -4 -12 -10 0 -5 -6 -10 -14 -10 -8
0 -18 -10 -22 -22 -7 -23 -28 -48 -40 -48 -4 0 -17 -11 -30 -25 -13 -14 -28
-25 -34 -25 -5 0 -10 -4 -10 -10 0 -5 -6 -10 -13 -10 -7 0 -19 -9 -27 -20 -8
-11 -20 -20 -27 -20 -7 0 -13 -6 -13 -13 0 -12 -34 -47 -46 -47 -9 0 -44 -41
-44 -52 0 -4 -7 -8 -15 -8 -8 0 -15 -4 -15 -10 0 -5 -7 -10 -15 -10 -9 0 -19
-8 -22 -17 -4 -10 -12 -23 -17 -30 -76 -87 -91 -150 -83 -360 5 -159 37 -355
63 -380 8 -8 17 -26 20 -41 13 -53 59 -122 82 -122 4 0 14 -16 21 -35 8 -24
19 -35 32 -35 10 0 19 -4 19 -10 0 -5 11 -12 25 -16 14 -3 25 -10 25 -15 0 -5
11 -9 25 -9 14 0 25 -4 25 -10 0 -5 11 -10 25 -10 14 0 25 -4 25 -10 0 -6 57
-10 150 -10 93 0 150 4 150 10 0 6 14 10 30 10 17 0 30 5 30 10 0 6 16 10 35
10 19 0 35 4 35 9 0 5 18 11 40 15 22 3 40 11 40 16 0 6 9 10 20 10 11 0 20 5
20 10 0 6 7 10 16 10 18 0 44 23 44 39 0 6 7 11 15 11 8 0 15 4 15 10 0 5 12
13 28 16 15 4 34 15 43 26 9 10 21 18 28 18 6 0 11 5 11 10 0 6 7 10 15 10 8
0 15 4 15 9 0 11 115 131 126 131 12 0 54 51 54 66 0 7 6 14 14 14 8 0 17 9
21 19 7 23 70 91 83 91 6 0 15 15 21 32 7 18 22 42 35 53 13 11 31 35 41 54 9
19 21 39 26 45 39 47 48 60 59 86 7 17 17 30 22 30 5 0 18 23 30 50 11 28 24
50 29 50 5 0 16 14 25 32 18 35 38 58 51 58 4 0 19 23 32 50 16 32 31 50 43
50 10 0 18 5 18 10 0 6 17 10 39 10 58 0 66 -28 66 -225 -1 -160 -21 -305 -45
-313 -5 -2 -10 -14 -10 -27 0 -13 -3 -25 -7 -27 -10 -4 -44 -93 -50 -130 -3
-16 -8 -28 -12 -28 -10 0 -51 -75 -51 -92 0 -13 -9 -26 -50 -75 -5 -7 -17 -28
-27 -47 -9 -20 -21 -36 -25 -36 -5 0 -17 -20 -28 -44 -10 -25 -36 -63 -57 -85
-50 -53 -63 -68 -63 -79 0 -8 -18 -31 -69 -88 -10 -11 -24 -31 -30 -42 -7 -12
-20 -22 -29 -22 -11 0 -23 -13 -31 -35 -7 -19 -16 -35 -21 -35 -5 0 -12 -9
-15 -20 -3 -11 -12 -20 -18 -20 -16 0 -43 -31 -52 -59 -3 -12 -14 -21 -23 -21
-10 0 -26 -11 -36 -25 -10 -14 -23 -25 -28 -25 -6 0 -23 -13 -38 -30 -15 -16
-33 -30 -39 -30 -6 0 -11 -7 -11 -15 0 -8 -7 -15 -15 -15 -8 0 -15 -4 -15 -9
0 -5 -10 -13 -22 -17 -13 -4 -30 -15 -39 -25 -9 -11 -23 -19 -30 -19 -8 0 -21
-9 -29 -20 -8 -11 -22 -20 -32 -20 -10 0 -18 -4 -18 -9 0 -5 -16 -12 -35 -15
-21 -4 -35 -13 -35 -21 0 -9 -10 -15 -25 -15 -14 0 -25 -4 -25 -10 0 -5 -13
-10 -30 -10 -16 0 -30 -4 -30 -10 0 -5 -11 -10 -25 -10 -14 0 -25 -4 -25 -10
0 -5 -20 -10 -45 -10 -25 0 -45 -4 -45 -10 0 -6 -65 -10 -175 -10 -110 0 -175
4 -175 10 0 6 -18 10 -40 10 -22 0 -40 5 -40 10 0 6 -9 10 -20 10 -11 0 -20 5
-20 10 0 6 -11 10 -25 10 -14 0 -25 5 -25 10 0 6 -11 10 -25 10 -15 0 -25 6
-25 14 0 8 -11 17 -25 20 -14 4 -25 11 -25 16 0 6 -9 10 -20 10 -11 0 -20 4
-20 8 0 11 -35 52 -44 52 -4 0 -13 6 -20 13 -8 6 -23 19 -35 27 -11 8 -21 20
-21 27 0 7 -4 13 -8 13 -5 0 -16 16 -25 35 -9 19 -23 35 -31 35 -12 0 -56 84
-56 108 0 5 -9 19 -20 32 -11 13 -20 31 -20 42 0 10 -3 18 -7 18 -9 0 -33 48
-33 66 0 7 -6 19 -13 26 -12 13 -39 115 -59 231 -6 31 -14 57 -18 57 -4 0 -13
53 -20 118 -8 64 -18 120 -24 124 -15 10 -15 926 0 936 6 4 16 77 23 162 8 85
17 157 20 160 4 3 15 59 24 125 33 230 41 280 48 285 4 3 15 47 25 98 9 50 21
92 25 92 4 0 11 20 15 45 3 25 10 45 15 45 5 0 9 7 9 16 0 24 52 228 60 234 7
6 50 140 50 158 0 7 5 12 10 12 6 0 10 6 10 14 0 8 3 16 8 18 7 3 52 134 52
151 0 5 6 15 14 23 8 7 24 45 36 84 13 43 27 70 36 70 8 0 14 8 14 18 0 10 6
26 14 37 7 11 17 35 21 53 3 18 12 38 18 45 14 15 67 123 67 138 0 5 5 15 10
22 41 48 50 63 61 96 7 20 15 38 19 41 4 3 16 23 28 45 11 22 29 51 41 64 12
13 21 29 21 36 0 16 43 65 57 65 6 0 21 25 34 55 13 30 31 57 40 60 9 3 22 19
29 35 7 17 20 30 30 30 9 0 22 11 28 25 6 14 16 25 21 25 5 0 12 11 15 25 4
14 13 25 21 25 8 0 15 4 15 8 0 16 37 52 53 52 9 0 27 11 41 25 14 14 29 25
34 25 6 0 13 11 16 24 4 17 15 26 36 31 16 4 30 11 30 16 0 5 9 9 20 9 11 0
20 5 20 10 0 6 8 10 18 10 10 0 24 9 32 20 8 11 25 20 37 20 13 0 23 5 23 10
0 6 16 10 35 10 19 0 35 5 35 10 0 6 11 10 25 10 14 0 25 5 25 10 0 6 53 10
140 10 87 0 140 -4 140 -10z m-13080 -40 c0 -5 6 -10 14 -10 8 0 17 -8 21 -19
3 -10 16 -31 29 -46 35 -41 50 -140 43 -287 -5 -118 -26 -208 -49 -208 -4 0
-8 -8 -8 -19 0 -27 -29 -93 -49 -111 -16 -14 -23 -31 -52 -142 -7 -24 -17 -47
-23 -53 -11 -10 -36 -91 -58 -187 -6 -27 -16 -48 -23 -48 -7 0 -23 -45 -40
-112 -15 -62 -31 -115 -35 -118 -6 -4 -60 -224 -60 -245 0 -3 -6 -5 -13 -5 -8
0 -17 -22 -24 -57 -18 -99 -47 -218 -53 -223 -4 -3 -10 -23 -14 -45 -4 -22
-12 -60 -17 -85 -5 -25 -12 -62 -15 -82 -4 -21 -10 -38 -14 -38 -4 0 -11 -26
-15 -57 -4 -32 -11 -60 -15 -63 -5 -3 -16 -50 -26 -105 -9 -55 -20 -102 -24
-105 -4 -3 -10 -21 -13 -40 -18 -118 -52 -296 -57 -300 -6 -5 -24 -102 -36
-197 -3 -29 -9 -53 -14 -53 -4 0 -10 -27 -14 -59 -4 -33 -10 -61 -14 -63 -5
-2 -21 -79 -37 -173 -16 -93 -31 -172 -35 -175 -6 -5 -15 -49 -42 -212 -6 -38
-15 -68 -20 -68 -4 0 -8 -11 -8 -25 0 -14 -4 -25 -8 -25 -4 0 -13 -33 -20 -72
-7 -40 -18 -103 -24 -140 -6 -38 -15 -68 -19 -68 -5 0 -11 -17 -14 -37 -4 -21
-15 -80 -26 -130 -10 -51 -19 -95 -19 -98 0 -3 -6 -5 -14 -5 -8 0 -16 -16 -19
-42 -9 -59 -48 -180 -64 -196 -7 -7 -13 -23 -13 -34 0 -11 -10 -38 -22 -59
l-22 -39 -83 0 c-46 0 -83 4 -83 9 0 4 -24 11 -52 14 -29 4 -54 11 -56 17 -2
5 -12 10 -23 10 -10 0 -19 5 -19 10 0 6 -7 10 -15 10 -8 0 -15 5 -15 10 0 6
-9 10 -19 10 -12 0 -21 9 -25 25 -4 14 -10 25 -15 25 -18 0 -72 59 -86 94 -10
23 -22 36 -33 36 -12 0 -26 17 -42 49 -13 28 -29 52 -36 55 -8 3 -14 13 -14
23 0 24 -42 123 -52 123 -4 0 -8 9 -8 20 0 11 -4 20 -10 20 -5 0 -10 11 -10
24 0 14 -4 27 -9 30 -5 4 -12 24 -16 46 -4 22 -10 40 -14 40 -4 0 -20 53 -36
118 -16 64 -32 120 -37 123 -5 3 -13 34 -20 70 -6 35 -15 67 -20 70 -4 3 -13
33 -19 67 -6 34 -15 62 -19 62 -4 0 -13 28 -20 63 -7 34 -16 82 -21 107 -5 25
-12 62 -15 83 -4 20 -10 37 -14 37 -4 0 -16 45 -25 100 -10 55 -21 100 -25
100 -4 0 -11 25 -15 55 -3 30 -10 55 -14 55 -3 0 -12 30 -18 68 -39 224 -47
267 -53 272 -4 3 -18 69 -30 148 -15 90 -28 142 -36 142 -7 0 -18 38 -29 98
-31 183 -38 212 -46 212 -5 0 -9 15 -9 34 0 49 -17 53 -37 9 -10 -21 -25 -45
-34 -53 -9 -8 -27 -47 -40 -85 -13 -39 -26 -72 -30 -75 -6 -5 -12 -27 -46
-155 -9 -33 -20 -62 -25 -63 -4 -2 -11 -21 -14 -43 -4 -21 -10 -39 -14 -39 -4
0 -16 -36 -26 -80 -11 -44 -22 -80 -25 -80 -4 0 -17 -42 -29 -92 -13 -51 -26
-95 -30 -98 -3 -3 -14 -41 -24 -85 -9 -43 -21 -82 -25 -85 -5 -3 -12 -21 -16
-40 -4 -19 -11 -37 -14 -40 -8 -6 -47 -156 -56 -217 -4 -24 -10 -43 -15 -43
-4 0 -18 -43 -31 -95 -12 -52 -26 -95 -31 -95 -4 0 -8 -9 -8 -20 0 -11 -4 -20
-8 -20 -5 0 -14 -19 -20 -42 -6 -24 -19 -72 -28 -108 -10 -36 -21 -67 -25 -70
-5 -3 -15 -33 -22 -65 -23 -96 -41 -145 -53 -145 -6 0 -14 -15 -18 -32 -11
-59 -39 -138 -47 -138 -5 0 -9 -8 -9 -17 0 -10 -12 -49 -25 -88 -14 -38 -25
-78 -25 -87 0 -10 -4 -18 -10 -18 -5 0 -10 -6 -10 -14 0 -8 -6 -21 -13 -28 -7
-7 -22 -43 -32 -80 -11 -38 -23 -68 -26 -68 -6 0 -26 -51 -49 -127 -7 -24 -17
-43 -21 -43 -5 0 -14 -20 -20 -45 -6 -25 -15 -45 -19 -45 -5 0 -14 -16 -20
-35 -6 -19 -15 -35 -19 -35 -4 0 -20 -26 -36 -57 -16 -32 -35 -64 -42 -71 -7
-7 -13 -17 -13 -22 0 -13 -46 -60 -59 -60 -6 0 -11 -7 -11 -15 0 -11 -12 -15
-50 -15 -38 0 -50 4 -50 15 0 9 -9 15 -21 15 -11 0 -26 6 -33 13 -8 6 -23 18
-34 26 -12 8 -26 27 -33 43 -6 15 -15 28 -20 28 -5 0 -9 5 -9 12 0 7 -11 22
-24 33 -14 12 -35 50 -47 85 -12 36 -28 71 -36 78 -7 7 -13 22 -13 32 0 10 -4
21 -9 25 -6 3 -13 26 -17 50 -3 25 -10 45 -14 45 -4 0 -13 20 -19 45 -6 25
-15 45 -19 45 -8 0 -32 92 -32 122 0 9 -4 18 -9 20 -10 3 -61 214 -61 249 0
11 -4 19 -8 19 -7 0 -34 130 -48 233 -4 26 -11 47 -15 47 -5 0 -9 13 -9 29 0
16 -4 31 -9 33 -5 2 -21 86 -37 188 -15 102 -31 187 -34 190 -4 3 -20 101 -36
218 -16 123 -33 212 -39 212 -9 0 -56 338 -55 397 0 12 -4 23 -9 25 -8 3 -41
275 -57 476 -4 45 -11 82 -15 82 -5 0 -9 27 -9 59 0 33 -4 61 -9 63 -29 11
-65 1091 -42 1268 17 130 33 210 42 210 5 0 9 7 9 15 0 8 4 15 10 15 5 0 13
12 16 28 8 29 44 104 55 112 3 3 14 20 23 38 10 19 24 32 36 32 10 0 22 9 25
20 3 11 13 20 21 20 8 0 14 7 14 15 0 8 6 15 14 15 8 0 16 5 18 12 3 8 28 12
76 11 74 -1 93 -10 106 -50 4 -11 17 -32 29 -46 44 -50 57 -71 57 -94 0 -12 6
-26 13 -30 42 -27 54 -196 33 -504 -9 -130 -16 -269 -16 -308 0 -41 -4 -71
-10 -71 -7 0 -10 -152 -10 -435 0 -239 4 -435 8 -435 5 0 12 -53 15 -117 11
-194 40 -473 49 -473 4 0 8 -12 8 -27 0 -53 43 -348 52 -351 4 -2 8 -17 8 -33
0 -16 5 -29 10 -29 6 0 10 -12 10 -27 0 -16 10 -80 21 -143 12 -63 24 -131 26
-150 3 -19 9 -37 13 -40 6 -5 49 -192 58 -257 2 -18 9 -33 16 -33 11 0 39 -69
56 -140 5 -19 14 -36 20 -38 6 -2 17 -10 24 -18 8 -8 22 -14 32 -14 24 0 61
43 69 81 4 17 14 39 23 49 17 21 42 86 42 113 0 10 6 20 14 23 8 3 18 23 21
45 4 22 13 45 20 53 8 7 17 30 20 50 4 20 14 43 21 51 7 7 18 35 24 62 12 56
42 146 51 153 3 3 14 38 24 78 9 39 21 72 25 72 5 0 12 15 15 33 4 17 11 34
15 37 4 3 20 54 35 115 15 60 33 114 39 121 6 6 20 45 30 88 10 42 23 76 29
76 7 0 25 52 41 120 16 65 32 121 36 122 6 3 20 49 52 176 6 23 15 42 20 42 4
0 8 9 8 20 0 11 4 20 8 20 5 0 19 44 32 98 13 53 27 99 31 102 9 7 34 83 49
153 7 31 17 57 21 57 5 0 11 17 15 37 4 21 12 43 19 50 7 6 18 39 26 72 7 34
17 61 21 61 4 0 8 9 8 19 0 11 4 22 9 25 4 3 14 33 21 66 7 33 16 60 19 60 4
0 16 35 26 78 11 42 25 83 32 90 7 7 13 22 13 33 0 10 4 19 9 19 5 0 15 26 21
58 7 31 16 62 20 67 4 6 11 26 15 45 4 19 10 37 14 40 4 3 17 38 31 78 13 39
27 72 32 72 4 0 8 7 8 15 0 8 5 15 10 15 6 0 10 6 10 14 0 19 52 140 62 144 4
2 8 9 8 15 0 19 54 117 65 117 6 0 21 23 34 50 21 42 29 50 53 50 15 0 28 -4
28 -10 0 -5 12 -10 28 -10 17 0 34 -9 46 -25 10 -14 24 -25 30 -25 11 0 46
-74 46 -97 0 -7 8 -16 18 -22 16 -9 17 -37 14 -396 -3 -372 10 -734 27 -745 4
-3 13 -68 20 -145 7 -77 15 -142 20 -145 7 -4 16 -62 54 -322 6 -43 14 -78 18
-78 4 0 15 -43 25 -95 10 -52 21 -95 26 -95 4 0 8 -9 8 -19 0 -11 4 -21 8 -23
8 -3 36 -119 53 -218 6 -30 14 -56 18 -58 5 -1 21 -57 37 -122 16 -67 34 -120
41 -120 6 0 17 -24 23 -52 7 -29 16 -57 20 -63 4 -5 11 -29 15 -52 4 -24 10
-43 14 -43 4 0 14 -19 21 -42 33 -111 47 -145 68 -166 12 -13 22 -30 22 -38 0
-41 73 -134 106 -134 14 0 38 21 73 66 9 12 61 221 61 247 0 9 4 17 8 17 8 0
42 156 42 193 0 9 4 17 9 17 5 0 13 26 17 58 4 31 10 59 14 62 8 6 60 304 60
343 0 14 4 27 8 29 9 3 62 306 62 351 0 16 5 27 13 27 10 0 19 30 30 93 36
206 42 232 48 237 3 3 9 23 13 45 24 141 40 215 48 215 4 0 8 15 8 34 0 19 4
36 10 38 8 2 22 66 48 213 2 17 8 32 12 35 7 4 41 147 57 238 3 17 9 32 14 32
4 0 11 20 15 45 3 25 10 45 14 45 4 0 16 33 25 73 10 39 21 74 25 77 4 3 19
54 34 115 16 60 32 113 37 116 6 3 17 34 25 68 8 34 21 69 29 77 8 9 15 24 15
35 0 10 4 19 8 19 8 0 42 105 42 128 0 7 6 15 14 18 8 3 17 17 20 32 14 57 49
132 62 132 8 0 14 7 14 14 0 16 42 66 55 66 4 0 20 14 35 30 17 18 38 30 54
30 14 0 26 5 26 10 0 6 27 10 60 10 33 0 60 -4 60 -10z m-6190 -135 c0 -12 13
-15 55 -15 30 0 55 -4 55 -10 0 -5 9 -10 20 -10 11 0 20 -4 20 -10 0 -5 18
-13 40 -16 22 -4 40 -10 40 -15 0 -5 7 -9 15 -9 8 0 15 -4 15 -10 0 -5 9 -10
19 -10 11 0 23 -9 26 -20 3 -11 10 -20 15 -20 4 0 10 -9 13 -20 3 -11 13 -20
22 -20 18 0 55 -35 55 -52 0 -4 6 -8 14 -8 8 0 18 -9 21 -20 3 -11 11 -20 16
-20 5 0 13 -8 16 -17 4 -10 14 -25 23 -33 9 -8 27 -34 40 -57 13 -24 27 -43
30 -43 4 0 20 -31 35 -70 15 -38 31 -70 35 -70 4 0 11 -15 14 -34 4 -19 12
-36 19 -39 6 -2 18 -26 26 -53 8 -27 19 -52 24 -56 11 -7 40 -114 51 -188 4
-24 11 -47 17 -50 10 -7 39 -129 39 -167 0 -13 5 -23 10 -23 6 0 10 -18 10
-40 0 -22 4 -40 8 -40 35 0 54 -708 28 -1015 -9 -104 -21 -191 -26 -193 -6 -2
-10 -21 -10 -43 0 -21 -4 -39 -9 -39 -4 0 -11 -30 -15 -67 -9 -91 -28 -183
-38 -183 -4 0 -8 -13 -8 -29 0 -15 -4 -41 -9 -57 -5 -16 -17 -66 -27 -111 -9
-46 -21 -83 -25 -83 -4 0 -15 -34 -24 -75 -9 -41 -20 -75 -25 -75 -4 0 -11
-16 -14 -35 -4 -19 -10 -35 -15 -35 -6 0 -24 -55 -57 -172 -3 -10 -10 -18 -15
-18 -5 0 -9 -8 -9 -18 0 -10 -7 -27 -15 -38 -8 -10 -15 -29 -15 -41 0 -12 -10
-32 -22 -45 -27 -27 -58 -91 -58 -118 0 -11 -9 -29 -19 -39 -24 -24 -46 -65
-55 -103 -3 -16 -12 -28 -19 -28 -7 0 -25 -25 -40 -55 -15 -30 -31 -55 -36
-55 -4 0 -16 -21 -26 -47 -10 -26 -31 -59 -47 -75 -16 -16 -36 -45 -45 -66 -8
-20 -22 -45 -32 -54 -26 -27 -37 -43 -51 -69 -7 -13 -19 -28 -26 -32 -8 -4
-14 -15 -14 -22 0 -8 -6 -15 -14 -15 -7 0 -19 -13 -26 -30 -7 -16 -18 -30 -25
-30 -6 0 -18 -11 -25 -25 -7 -14 -19 -25 -27 -25 -7 0 -13 -6 -13 -13 0 -8 -9
-24 -20 -37 -11 -13 -20 -27 -20 -32 0 -4 -9 -8 -19 -8 -20 0 -35 -12 -61 -49
-8 -11 -20 -21 -27 -21 -7 0 -13 -6 -13 -14 0 -21 -28 -46 -52 -46 -11 0 -33
-13 -48 -30 -15 -16 -33 -30 -39 -30 -6 0 -11 -4 -11 -10 0 -5 -7 -10 -15 -10
-8 0 -15 -4 -15 -9 0 -5 -18 -11 -40 -15 -26 -4 -40 -11 -40 -21 0 -8 -9 -15
-20 -15 -11 0 -20 -4 -20 -10 0 -5 -7 -10 -15 -10 -8 0 -15 -4 -15 -10 0 -5
-18 -10 -40 -10 -22 0 -40 -4 -40 -10 0 -5 -13 -10 -30 -10 -16 0 -30 -4 -30
-10 0 -6 -57 -10 -150 -10 -93 0 -150 4 -150 10 0 6 -16 10 -35 10 -19 0 -35
5 -35 10 0 6 -11 10 -25 10 -14 0 -25 5 -25 10 0 6 -7 10 -15 10 -8 0 -15 5
-15 10 0 6 -9 10 -20 10 -11 0 -20 6 -20 14 0 8 -13 17 -30 21 -16 4 -30 11
-30 16 0 5 -6 9 -14 9 -8 0 -18 9 -21 20 -3 11 -12 20 -18 20 -7 0 -21 11 -31
25 -10 14 -25 25 -32 25 -7 0 -18 16 -24 35 -6 20 -27 52 -46 71 -18 20 -39
52 -46 70 -7 19 -16 34 -20 34 -4 0 -8 5 -8 11 0 6 -6 17 -14 25 -8 8 -22 39
-31 70 -9 31 -26 66 -39 79 -15 15 -30 54 -45 119 -13 53 -26 96 -30 96 -10 0
-37 140 -52 273 -8 68 -17 107 -24 107 -17 0 -25 125 -25 405 0 298 9 465 25
465 7 0 15 49 23 143 14 169 43 390 53 397 6 5 23 93 51 263 7 37 15 67 20 67
4 0 8 9 8 20 0 11 5 20 10 20 6 0 10 8 10 18 0 26 41 186 49 192 4 3 18 50 32
104 13 55 29 105 35 111 6 6 15 26 19 43 3 18 10 32 15 32 4 0 11 17 14 38 9
49 28 102 37 102 4 0 17 31 28 69 12 38 24 71 29 73 4 2 15 29 25 61 10 31 22
57 28 57 5 0 9 9 9 19 0 11 7 27 17 36 9 9 26 46 39 81 12 35 29 70 37 78 8 9
23 37 33 63 10 27 25 55 35 63 9 8 29 40 45 70 15 30 34 61 41 68 7 7 13 17
13 22 0 12 45 60 57 60 5 0 19 23 30 50 12 29 28 50 36 50 9 0 19 9 22 20 3
11 10 20 15 20 5 0 12 9 15 20 3 11 13 20 21 20 8 0 14 6 14 14 0 8 9 17 19
21 11 3 23 15 26 26 4 10 11 19 17 19 5 0 22 13 37 29 16 17 40 33 54 37 15 3
27 11 27 16 0 14 26 38 42 38 8 0 20 9 28 20 8 11 22 20 32 20 10 0 18 4 18 9
0 6 20 13 45 17 25 3 45 10 45 15 0 5 14 9 30 9 17 0 30 5 30 10 0 6 16 10 35
10 24 0 35 5 35 15 0 13 22 15 140 15 118 0 140 -2 140 -15z m-2262 -73 c2 -6
12 -12 23 -12 10 0 19 -4 19 -10 0 -5 7 -10 15 -10 18 0 65 -43 65 -60 0 -5 5
-10 12 -10 13 0 58 -48 58 -62 0 -4 6 -8 13 -8 13 0 67 -97 67 -120 0 -6 9
-20 19 -32 11 -11 23 -39 27 -62 3 -22 11 -44 16 -47 5 -3 11 -23 15 -45 3
-21 10 -42 15 -45 13 -9 25 -220 17 -312 -5 -58 -12 -83 -23 -89 -9 -5 -16
-18 -16 -28 0 -11 -4 -20 -9 -20 -5 0 -16 -18 -25 -40 -9 -22 -23 -40 -31 -40
-8 0 -15 -4 -15 -10 0 -5 -7 -10 -15 -10 -8 0 -15 -4 -15 -10 0 -6 -32 -10
-75 -10 -43 0 -75 4 -75 10 0 6 -7 10 -15 10 -8 0 -15 4 -15 10 0 5 -11 12
-25 16 -14 3 -25 12 -25 20 0 8 -4 14 -8 14 -5 0 -17 18 -27 40 -10 22 -26 42
-35 45 -10 3 -25 24 -34 46 -21 52 -34 65 -74 74 -18 3 -32 11 -32 16 0 5 -31
9 -70 9 -40 0 -70 -4 -70 -10 0 -5 -9 -10 -19 -10 -11 0 -26 -7 -35 -15 -8 -8
-17 -15 -21 -15 -10 0 -35 -28 -35 -39 0 -6 -5 -11 -10 -11 -6 0 -22 -11 -36
-25 -14 -14 -29 -25 -33 -25 -4 0 -16 -18 -26 -40 -10 -22 -24 -40 -32 -40 -7
0 -13 -6 -13 -12 0 -11 -14 -31 -60 -86 -6 -6 -23 -36 -37 -65 -15 -28 -32
-58 -39 -64 -7 -7 -23 -35 -36 -63 -13 -27 -28 -49 -34 -50 -7 0 -22 -25 -34
-56 -13 -30 -28 -61 -34 -67 -7 -7 -20 -34 -30 -60 -10 -27 -28 -58 -40 -70
-13 -13 -25 -31 -29 -42 -17 -56 -34 -93 -50 -109 -9 -10 -17 -26 -17 -35 0
-23 -38 -111 -56 -129 -8 -7 -14 -24 -14 -37 0 -12 -6 -25 -13 -28 -7 -3 -19
-28 -27 -55 -7 -28 -19 -53 -27 -56 -7 -3 -13 -13 -13 -23 0 -21 -23 -89 -33
-99 -4 -4 -7 -16 -7 -26 0 -10 -4 -18 -10 -18 -5 0 -10 -7 -10 -16 0 -25 -33
-117 -47 -132 -7 -7 -13 -22 -13 -33 0 -10 -4 -19 -8 -19 -5 0 -19 -44 -32
-97 -13 -54 -26 -100 -30 -103 -11 -9 -29 -64 -46 -147 -10 -51 -22 -83 -29
-83 -8 0 -17 -22 -23 -52 -26 -142 -46 -233 -53 -238 -4 -3 -20 -78 -35 -167
-18 -107 -32 -163 -40 -163 -7 0 -14 -19 -17 -47 -11 -118 -52 -418 -58 -423
-3 -3 -18 -144 -33 -315 -15 -170 -31 -311 -36 -313 -6 -2 -10 -17 -10 -33 0
-16 -4 -29 -10 -29 -5 0 -10 -6 -10 -14 0 -38 -38 -124 -67 -154 -18 -18 -33
-37 -33 -42 0 -5 -18 -13 -40 -16 -22 -4 -40 -10 -40 -15 0 -5 -36 -9 -80 -9
-74 0 -83 2 -105 26 -13 14 -27 35 -30 45 -4 11 -11 19 -16 19 -5 0 -9 11 -9
24 0 14 -4 27 -9 30 -5 3 -12 23 -15 43 -14 81 -18 93 -30 93 -20 0 -46 308
-57 680 -14 461 4 1645 37 2373 5 102 11 147 19 147 12 0 23 136 47 595 6 121
14 222 18 225 4 3 10 48 14 100 7 97 42 262 58 268 4 2 8 10 8 18 0 8 4 14 10
14 5 0 19 19 31 43 12 23 32 51 45 62 13 11 24 24 24 29 0 11 27 36 39 36 6 0
11 5 11 10 0 6 11 10 25 10 14 0 25 5 25 10 0 6 27 10 60 10 33 0 60 -4 60
-10 0 -5 10 -10 21 -10 23 0 59 -34 59 -56 0 -7 7 -17 15 -22 30 -16 49 -118
48 -258 0 -126 -30 -434 -43 -444 -7 -6 -46 -273 -56 -387 -4 -40 -11 -73 -15
-73 -5 0 -9 -27 -9 -59 0 -33 -4 -61 -8 -63 -9 -3 -43 -399 -42 -495 0 -34 -4
-63 -9 -65 -9 -3 -32 -620 -30 -818 1 -108 3 -119 12 -82 5 23 13 42 18 42 4
0 11 17 14 38 12 71 29 132 37 132 4 0 8 9 8 20 0 11 4 20 9 20 5 0 12 17 15
38 13 77 50 222 57 222 3 0 19 54 35 120 16 66 34 120 40 120 7 0 24 51 39
113 16 61 34 115 40 119 7 4 16 25 19 45 12 67 41 143 54 143 6 0 12 11 12 24
0 14 4 27 8 30 4 3 14 28 22 56 8 29 20 54 27 57 7 3 13 12 13 21 0 23 42 122
52 122 4 0 8 11 8 24 0 14 6 31 14 39 8 8 22 37 32 66 9 28 19 51 23 51 3 0
12 15 19 33 36 88 46 107 54 107 4 0 8 7 8 15 0 20 32 85 42 85 4 0 8 6 8 13
0 8 9 24 20 37 11 13 20 32 20 43 0 19 36 86 52 98 5 3 18 30 29 59 11 30 29
61 39 70 10 9 28 36 41 60 13 25 27 50 31 55 5 6 20 24 33 40 14 17 25 33 25
38 0 4 6 7 14 7 7 0 21 20 30 45 10 24 26 47 36 50 10 3 22 15 25 26 4 10 10
19 15 19 5 0 12 9 15 20 3 11 13 20 21 20 8 0 14 7 14 16 0 9 9 18 20 21 10 3
22 14 25 24 4 10 13 19 21 19 8 0 14 4 14 8 0 17 36 49 63 56 15 3 27 13 27
21 0 8 7 15 15 15 8 0 15 5 15 10 0 6 7 10 15 10 8 0 15 5 15 10 0 6 7 10 15
10 8 0 15 5 15 10 0 6 11 10 25 10 14 0 25 4 25 9 0 15 52 19 204 17 100 -1
141 -5 144 -14z m23232 -202 c0 -5 12 -10 28 -10 35 0 45 -8 62 -49 7 -18 24
-44 37 -57 17 -17 28 -48 40 -111 25 -132 25 -770 -1 -1098 -10 -132 -22 -242
-26 -245 -3 -3 -14 -97 -24 -210 -35 -426 -39 -465 -46 -470 -5 -3 -14 -72
-21 -155 -7 -82 -16 -152 -20 -155 -4 -3 -13 -72 -20 -155 -7 -82 -17 -153
-21 -156 -5 -3 -12 -83 -15 -177 -6 -171 -6 -172 15 -172 15 0 24 8 28 27 4
15 14 34 21 42 8 7 17 26 20 42 3 16 9 29 12 29 7 0 15 21 47 128 11 34 22 62
26 62 5 0 8 11 8 24 0 14 4 27 8 30 5 3 14 30 21 61 7 30 17 55 22 55 5 0 9
11 9 24 0 13 5 26 11 28 6 2 22 48 36 102 13 55 30 104 36 111 7 6 23 55 36
108 14 61 28 97 36 97 7 0 15 12 18 28 9 46 41 157 48 162 3 3 14 37 23 75 10
39 22 78 27 87 5 10 9 25 9 33 0 8 5 15 10 15 6 0 10 9 10 20 0 11 4 20 9 20
5 0 12 15 16 33 11 57 38 137 45 137 4 0 10 12 13 28 12 58 50 177 58 180 5 2
11 19 15 38 3 19 10 34 15 34 4 0 16 26 26 58 9 31 20 59 24 62 12 9 37 76 44
119 4 23 13 45 20 48 8 2 22 30 31 61 10 31 29 67 41 80 13 13 23 29 23 37 0
9 9 32 20 52 11 21 20 46 20 55 0 10 3 18 8 18 12 0 62 96 62 119 0 12 5 21
11 21 13 0 59 47 59 60 0 5 6 15 13 22 7 7 24 34 37 61 13 26 30 47 38 47 15
0 52 37 52 51 0 5 11 11 25 15 14 3 25 12 25 19 0 16 34 55 49 55 6 0 11 5 11
10 0 6 9 10 20 10 11 0 20 4 20 9 0 5 16 12 35 15 19 4 35 11 35 16 0 6 14 10
30 10 17 0 30 5 30 10 0 6 43 10 110 10 67 0 110 -4 110 -10 0 -5 9 -10 21
-10 11 0 27 -7 35 -15 9 -8 25 -15 38 -15 12 0 28 -10 36 -21 8 -12 24 -31 35
-43 12 -12 24 -29 28 -39 3 -9 10 -17 15 -17 5 0 15 -13 22 -30 7 -16 16 -30
21 -30 5 0 9 -9 9 -20 0 -11 4 -20 10 -20 10 0 50 -84 50 -105 0 -8 4 -15 9
-17 9 -3 61 -197 61 -228 0 -10 4 -20 10 -22 5 -1 15 -37 21 -78 7 -41 16 -77
20 -80 4 -3 13 -55 20 -115 7 -61 16 -112 20 -115 7 -5 33 -257 45 -445 4 -55
10 -102 14 -105 4 -3 17 -169 30 -370 12 -201 26 -366 31 -368 5 -2 9 -35 9
-73 0 -38 4 -69 9 -69 4 0 11 -46 15 -102 11 -162 46 -462 55 -468 5 -3 16
-36 25 -75 20 -82 35 -115 52 -115 7 0 16 -9 19 -20 3 -11 11 -20 16 -20 5 0
9 -5 9 -11 0 -28 30 -39 104 -39 44 0 76 4 76 10 0 6 7 10 15 10 8 0 15 7 15
15 0 8 8 15 18 15 10 0 24 9 32 20 8 11 22 20 32 20 10 0 18 5 18 10 0 6 19
10 43 10 32 0 46 -5 57 -21 8 -12 22 -28 30 -37 20 -21 22 -303 3 -310 -7 -2
-13 -12 -13 -22 0 -19 -29 -91 -41 -100 -4 -3 -18 -31 -33 -62 -15 -32 -31
-58 -36 -58 -5 0 -12 -9 -15 -20 -3 -11 -12 -20 -20 -20 -8 0 -17 -9 -20 -20
-3 -11 -13 -20 -21 -20 -8 0 -18 -8 -21 -17 -8 -20 -48 -63 -59 -63 -4 0 -14
-8 -23 -19 -10 -11 -37 -21 -69 -26 -28 -4 -52 -11 -52 -16 0 -5 -56 -9 -125
-9 -69 0 -125 4 -125 9 0 5 -13 12 -30 16 -16 4 -30 11 -30 16 0 5 -5 9 -10 9
-13 0 -80 66 -80 79 0 5 -8 12 -18 15 -18 6 -52 64 -52 89 0 7 -8 22 -18 33
-20 21 -21 24 -49 149 -10 44 -21 82 -25 83 -5 2 -8 16 -8 32 0 16 -4 30 -8
32 -9 3 -48 312 -58 468 -4 52 -10 97 -14 100 -8 5 -30 333 -52 743 -8 165
-15 237 -23 237 -8 0 -14 34 -18 98 -11 169 -40 447 -47 452 -4 3 -15 50 -24
105 -24 144 -38 205 -48 205 -4 0 -8 9 -8 20 0 11 -4 20 -9 20 -5 0 -19 26
-32 57 -13 32 -35 70 -50 85 -23 25 -33 28 -92 28 -45 0 -70 -5 -81 -15 -8 -8
-19 -15 -25 -15 -6 0 -11 -4 -11 -10 0 -5 -7 -10 -15 -10 -8 0 -15 -7 -15 -15
0 -8 -4 -15 -9 -15 -5 0 -13 -9 -16 -20 -3 -11 -13 -20 -20 -20 -8 0 -22 -15
-31 -32 -9 -18 -20 -35 -24 -38 -3 -3 -19 -31 -35 -62 -16 -32 -34 -58 -40
-58 -12 0 -41 -53 -49 -92 -3 -15 -12 -33 -20 -40 -7 -8 -19 -32 -26 -53 -27
-84 -45 -125 -55 -125 -5 0 -23 -41 -38 -90 -16 -50 -33 -90 -37 -90 -5 0 -13
-19 -18 -42 -26 -108 -48 -174 -63 -188 -16 -15 -49 -106 -49 -134 0 -9 -4
-16 -9 -16 -5 0 -15 -24 -21 -52 -7 -29 -16 -57 -20 -63 -4 -5 -11 -29 -15
-52 -4 -24 -10 -43 -15 -43 -5 0 -15 -30 -24 -67 -8 -36 -19 -69 -25 -72 -5
-3 -13 -20 -17 -36 -4 -17 -10 -32 -13 -35 -4 -3 -20 -57 -36 -120 -16 -63
-34 -121 -41 -128 -7 -6 -20 -46 -29 -87 -10 -41 -21 -75 -26 -75 -5 0 -9 -9
-9 -20 0 -11 -4 -20 -8 -20 -5 0 -14 -19 -20 -42 -24 -95 -47 -173 -53 -178
-6 -6 -39 -112 -46 -152 -3 -16 -11 -28 -18 -28 -7 0 -20 -26 -28 -57 -9 -32
-21 -78 -28 -103 -7 -25 -15 -47 -19 -50 -10 -8 -29 -61 -36 -103 -3 -20 -10
-40 -15 -43 -5 -3 -9 -14 -9 -25 0 -10 -4 -19 -10 -19 -5 0 -10 -9 -10 -21 0
-11 -6 -27 -14 -34 -7 -8 -22 -41 -32 -74 -10 -34 -21 -61 -25 -61 -4 0 -10
-12 -13 -27 -11 -43 -50 -137 -63 -151 -7 -7 -13 -17 -13 -21 0 -7 -19 -31
-69 -87 -10 -11 -22 -31 -26 -42 -3 -12 -12 -22 -19 -22 -7 0 -22 -11 -32 -25
-10 -14 -29 -25 -41 -25 -13 0 -23 -4 -23 -10 0 -5 -22 -10 -50 -10 -27 0 -50
5 -50 10 0 6 -20 10 -44 10 -35 0 -46 4 -51 19 -3 10 -17 22 -30 25 -15 4 -27
16 -31 31 -4 15 -13 25 -24 25 -12 0 -23 18 -39 65 -11 36 -21 72 -21 79 0 8
-6 16 -12 19 -18 5 -19 624 -2 635 7 4 20 124 35 320 16 219 26 312 34 312 8
0 14 31 19 88 10 134 34 558 42 740 4 89 10 162 14 162 9 0 30 748 30 1083 0
343 18 567 45 567 13 0 32 53 53 146 5 23 18 50 29 61 11 11 28 41 39 67 13
31 26 49 42 52 12 4 22 10 22 15 0 5 25 9 55 9 30 0 55 -4 55 -10z"/>
<path d="M41380 8790 c0 -6 -33 -10 -80 -10 -47 0 -80 -4 -80 -10 0 -6 -28
-10 -65 -10 -37 0 -65 -4 -65 -10 0 -5 -22 -10 -50 -10 -27 0 -50 -4 -50 -9 0
-5 -47 -12 -105 -16 -58 -4 -105 -11 -105 -16 0 -5 -25 -9 -55 -9 -42 0 -55
-3 -55 -15 0 -11 -12 -15 -50 -15 -27 0 -50 -1 -50 -2 -10 -83 -30 -326 -30
-360 0 -27 -4 -48 -8 -48 -5 0 -17 -108 -27 -240 -11 -132 -22 -240 -26 -240
-4 0 -10 -57 -14 -127 -4 -71 -11 -130 -15 -133 -4 -3 -18 -151 -30 -330 -13
-179 -26 -327 -30 -330 -4 -3 -20 -204 -36 -447 -19 -293 -32 -443 -40 -443
-7 0 -15 -79 -23 -227 -25 -476 -41 -822 -41 -930 0 -69 -4 -113 -10 -113 -7
0 -10 -143 -10 -410 0 -235 4 -410 9 -410 5 0 12 -36 16 -80 7 -75 9 -81 32
-86 39 -10 247 3 251 15 2 6 15 11 28 11 13 0 24 5 24 10 0 6 14 10 30 10 17
0 30 5 30 10 0 6 11 10 25 10 14 0 25 5 25 10 0 6 9 10 20 10 11 0 20 5 20 10
0 6 11 10 25 10 14 0 25 5 25 10 0 6 11 10 25 10 14 0 25 5 25 10 0 6 9 10 20
10 11 0 20 5 20 10 0 6 11 10 25 10 14 0 25 5 25 10 0 6 11 10 25 10 14 0 25
5 25 10 0 6 7 10 15 10 8 0 15 4 15 9 0 5 18 11 40 15 22 3 40 11 40 16 0 6
14 10 30 10 20 0 30 5 30 15 0 8 7 15 15 15 8 0 15 5 15 10 0 6 9 10 20 10 11
0 20 5 20 10 0 6 7 10 15 10 8 0 15 4 15 9 0 5 22 11 48 15 31 4 53 13 62 26
8 11 22 20 32 20 10 0 18 5 18 10 0 6 7 10 15 10 8 0 15 7 15 15 0 8 7 15 15
15 8 0 15 4 15 9 0 5 16 12 35 15 19 4 35 11 35 16 0 6 8 10 18 10 10 0 24 9
32 20 8 11 25 20 37 20 13 0 23 5 23 10 0 6 7 10 15 10 8 0 15 5 15 10 0 6 5
10 11 10 6 0 24 14 39 30 15 17 33 30 40 30 7 0 24 13 39 29 14 15 36 31 49
35 12 4 25 18 28 32 3 13 12 24 20 24 8 0 14 5 14 10 0 6 7 10 15 10 8 0 15 4
15 9 0 5 10 13 22 17 24 7 78 60 78 75 0 5 7 9 15 9 8 0 15 5 15 11 0 6 23 33
50 60 28 27 50 53 50 58 0 5 9 13 20 16 11 3 20 13 20 21 0 8 4 14 9 14 5 0
13 9 16 20 3 11 15 20 26 20 10 0 19 4 19 9 0 4 11 21 25 37 34 38 35 41 70
107 17 33 36 57 45 57 10 0 26 20 39 50 12 28 26 50 30 50 5 0 16 18 26 40 10
22 22 40 27 40 4 0 8 7 8 16 0 9 8 24 19 33 10 9 25 30 34 46 8 17 25 41 36
54 12 13 21 34 21 45 0 19 22 61 40 76 3 3 12 24 20 48 7 23 16 42 20 42 4 0
13 19 21 43 7 23 19 48 26 55 7 7 13 20 13 28 0 20 38 126 48 133 4 3 18 53
31 111 13 58 27 107 32 108 5 2 9 12 9 22 0 10 4 20 8 22 8 3 47 216 58 323 4
33 10 62 14 65 13 9 30 291 30 486 -1 238 -15 487 -29 492 -6 2 -11 18 -12 35
-1 62 -45 291 -57 295 -7 2 -12 12 -12 23 0 10 -4 19 -8 19 -8 0 -36 87 -48
147 -3 17 -12 34 -20 37 -8 3 -14 15 -14 26 0 25 -37 100 -49 100 -5 0 -14 14
-21 30 -7 17 -16 30 -21 30 -5 0 -9 7 -9 14 0 8 -10 26 -23 40 -13 14 -32 43
-42 66 -10 22 -24 40 -32 40 -7 0 -13 4 -13 9 0 13 -56 71 -69 71 -6 0 -11 5
-11 10 0 6 -13 24 -30 40 -16 16 -30 32 -30 35 0 13 -50 55 -65 55 -9 0 -23 6
-30 13 -34 30 -45 37 -57 37 -8 0 -20 9 -28 20 -8 11 -22 20 -32 20 -10 0 -18
7 -18 15 0 8 -9 15 -20 15 -11 0 -20 4 -20 9 0 5 -22 12 -50 16 -27 4 -50 11
-50 16 0 5 -16 9 -35 9 -19 0 -35 5 -35 10 0 6 -9 10 -20 10 -11 0 -20 5 -20
10 0 6 -30 10 -70 10 -40 0 -70 4 -70 10 0 6 -88 10 -245 10 -157 0 -245 -4
-245 -10z"/>
<path d="M13920 7240 c0 -5 -12 -10 -26 -10 -14 0 -32 -6 -39 -12 -34 -31 -45
-38 -56 -38 -6 0 -24 -13 -39 -30 -15 -16 -32 -30 -37 -30 -4 0 -17 -18 -27
-40 -11 -22 -24 -40 -30 -40 -7 0 -18 -10 -26 -22 -8 -11 -23 -28 -32 -37 -10
-8 -18 -21 -18 -28 0 -7 -4 -13 -8 -13 -5 0 -17 -17 -26 -38 -10 -21 -28 -51
-42 -67 -13 -15 -24 -34 -24 -42 0 -7 -4 -13 -9 -13 -5 0 -12 -8 -15 -17 -3
-10 -17 -31 -31 -47 -14 -17 -28 -41 -31 -55 -3 -14 -12 -38 -20 -53 -8 -14
-14 -31 -14 -38 0 -6 -7 -18 -15 -26 -8 -9 -18 -27 -22 -42 -3 -15 -12 -33
-20 -40 -7 -7 -16 -25 -19 -39 -4 -14 -15 -34 -24 -43 -10 -10 -20 -38 -24
-63 -4 -26 -11 -49 -17 -52 -5 -4 -9 -15 -9 -26 0 -10 -4 -19 -8 -19 -5 0 -14
-19 -20 -42 -6 -24 -16 -64 -23 -90 -7 -27 -17 -48 -23 -48 -10 0 -37 -96 -61
-215 -4 -16 -11 -32 -15 -35 -9 -6 -13 -24 -46 -217 -11 -65 -22 -103 -30
-103 -8 0 -15 -22 -19 -57 -4 -32 -13 -92 -20 -133 -6 -41 -11 -76 -10 -78 6
-8 35 12 35 24 0 8 5 14 11 14 13 0 69 58 69 71 0 5 6 9 14 9 7 0 22 11 32 25
10 14 27 25 36 25 10 0 18 6 18 13 0 16 33 57 46 57 10 0 54 50 54 62 0 4 7 8
15 8 8 0 17 11 21 25 3 14 13 25 20 25 8 0 17 7 20 15 4 8 12 15 19 15 8 0 17
9 20 20 3 11 10 20 15 20 5 0 12 9 15 20 3 11 13 20 21 20 8 0 18 8 21 17 4
10 17 28 30 41 13 13 23 27 23 32 0 6 7 10 15 10 8 0 15 4 15 9 0 4 14 22 30
39 17 18 30 36 30 41 0 13 65 81 77 81 6 0 19 19 29 42 10 23 31 55 46 70 14
15 29 36 33 47 3 12 12 21 20 21 7 0 21 18 31 40 10 22 21 40 26 40 4 0 8 9 8
20 0 11 4 20 9 20 5 0 22 26 37 58 16 31 41 70 56 85 15 15 33 47 39 70 6 22
16 46 23 52 7 5 19 30 26 55 7 25 17 49 22 54 4 6 8 20 8 33 0 13 4 23 8 23 9
0 32 80 32 114 0 14 6 26 13 28 9 4 12 47 12 173 0 126 -3 169 -12 172 -7 3
-13 14 -13 25 0 11 -8 22 -20 25 -10 3 -22 14 -25 24 -6 16 -17 19 -81 19 -43
0 -74 -4 -74 -10z"/>
<path d="M45570 7240 c0 -5 -16 -10 -35 -10 -19 0 -35 -4 -35 -10 0 -5 -7 -10
-15 -10 -8 0 -25 -11 -39 -25 -14 -14 -29 -25 -33 -25 -5 0 -15 -9 -23 -20 -8
-11 -20 -20 -27 -20 -7 0 -13 -6 -13 -13 0 -7 -8 -20 -17 -28 -10 -9 -25 -26
-33 -39 -8 -13 -27 -35 -41 -49 -14 -14 -31 -41 -38 -58 -8 -18 -19 -33 -25
-33 -6 0 -25 -26 -41 -57 -17 -32 -33 -60 -36 -63 -3 -3 -19 -27 -34 -55 -16
-27 -33 -51 -37 -53 -4 -2 -8 -14 -8 -27 0 -12 -7 -25 -14 -28 -8 -3 -20 -24
-26 -46 -6 -22 -16 -46 -23 -53 -8 -7 -16 -22 -20 -33 -16 -54 -35 -98 -49
-115 -9 -10 -19 -36 -23 -58 -3 -22 -12 -43 -20 -46 -7 -2 -16 -23 -20 -45 -4
-23 -10 -41 -14 -41 -7 0 -30 -74 -52 -165 -7 -27 -15 -52 -19 -55 -7 -6 -26
-76 -35 -132 -3 -20 -10 -38 -15 -40 -5 -2 -13 -25 -16 -53 -4 -27 -11 -53
-16 -56 -9 -6 -58 -273 -58 -318 0 -16 -4 -31 -9 -33 -5 -1 -13 -31 -18 -66
-8 -53 -8 -62 4 -57 8 3 19 5 24 5 5 0 9 6 9 13 0 17 34 57 48 57 6 0 14 9 17
20 3 11 13 20 21 20 8 0 17 7 20 15 4 8 10 15 16 15 12 0 38 26 38 38 0 14 36
52 49 52 6 0 14 7 17 15 4 8 11 15 16 15 15 0 68 60 68 76 0 8 4 14 10 14 12
0 60 48 60 60 0 6 5 10 10 10 11 0 70 54 70 64 0 4 9 17 20 29 37 40 70 82 70
90 0 4 9 7 19 7 12 0 23 11 29 29 6 16 28 47 49 69 44 46 73 83 73 94 0 4 17
24 38 46 20 21 48 61 62 90 14 29 30 52 37 52 7 0 13 8 13 19 0 10 11 31 25
47 34 38 35 41 70 107 16 31 33 57 37 57 4 0 8 8 8 18 0 9 7 30 15 46 8 15 15
35 15 42 0 8 4 14 10 14 5 0 13 12 16 28 4 15 12 30 17 34 13 8 44 130 53 208
4 33 11 60 15 60 5 0 9 54 9 120 0 66 -4 120 -9 120 -5 0 -12 18 -16 41 -4 22
-13 43 -21 46 -7 2 -16 13 -19 24 -6 16 -16 19 -81 19 -43 0 -74 -4 -74 -10z"/>
<path d="M26340 7030 c0 -5 -13 -10 -30 -10 -16 0 -30 -4 -30 -10 0 -5 -9 -10
-21 -10 -11 0 -27 -7 -35 -15 -9 -8 -24 -15 -35 -15 -10 0 -19 -7 -19 -15 0
-8 -6 -15 -13 -15 -7 0 -19 -9 -27 -20 -8 -11 -20 -20 -27 -20 -6 0 -15 -9
-18 -20 -3 -11 -17 -23 -30 -26 -14 -3 -29 -19 -36 -37 -8 -18 -30 -48 -49
-67 -20 -20 -45 -57 -56 -83 -10 -26 -22 -47 -26 -47 -4 0 -15 -14 -24 -32 -9
-18 -23 -38 -30 -46 -8 -7 -14 -20 -14 -28 0 -8 -4 -14 -9 -14 -4 0 -16 -25
-26 -55 -9 -30 -21 -57 -26 -61 -5 -3 -9 -14 -9 -25 0 -10 -4 -19 -10 -19 -5
0 -12 -16 -16 -35 -3 -19 -10 -37 -14 -40 -5 -3 -11 -23 -15 -45 -4 -23 -12
-40 -20 -40 -12 0 -43 -95 -61 -187 -4 -18 -10 -33 -13 -33 -4 0 -20 -52 -36
-115 -15 -63 -32 -115 -37 -115 -4 0 -8 -11 -8 -25 0 -14 -4 -25 -9 -25 -4 0
-11 -15 -14 -32 -29 -160 -38 -202 -45 -207 -10 -8 -38 -174 -53 -321 -7 -63
-17 -118 -22 -121 -5 -4 -12 -66 -15 -138 -2 -72 -9 -131 -13 -131 -5 0 -9
-110 -9 -245 0 -135 4 -245 9 -245 4 0 11 -41 15 -92 3 -50 10 -94 15 -97 4
-3 11 -28 15 -56 12 -83 49 -219 63 -233 7 -7 13 -19 13 -27 0 -7 8 -28 18
-46 17 -32 24 -42 77 -103 14 -16 25 -33 25 -37 0 -5 5 -9 11 -9 14 0 39 -25
39 -39 0 -6 11 -11 25 -11 14 0 25 -4 25 -10 0 -6 45 -10 115 -10 70 0 115 4
115 10 0 6 11 10 25 10 16 0 25 6 25 15 0 9 9 15 25 15 14 0 25 5 25 10 0 6 9
10 20 10 11 0 20 5 20 10 0 6 7 10 15 10 8 0 15 4 15 9 0 5 11 12 25 15 14 4
25 11 25 16 0 6 7 10 15 10 8 0 15 5 15 10 0 6 5 10 11 10 12 0 39 25 39 37 0
5 10 15 21 23 33 22 69 60 69 70 0 6 9 10 19 10 11 0 22 9 26 19 3 11 19 34
36 52 16 17 29 35 29 40 0 5 17 26 38 47 20 21 47 59 59 85 13 26 27 47 32 47
5 0 18 23 30 50 12 28 30 59 39 69 35 39 53 67 59 94 3 15 9 27 13 27 4 0 21
29 36 65 16 36 32 65 36 65 5 0 8 10 8 23 0 12 6 31 14 42 7 11 16 32 20 48 3
15 11 27 16 27 6 0 10 11 10 25 0 14 4 25 9 25 8 0 44 106 57 170 3 19 10 37
15 41 9 5 59 218 59 251 0 10 7 18 15 18 8 0 15 6 15 13 0 6 9 82 20 167 11
85 20 176 20 203 0 26 5 47 10 47 6 0 10 102 10 285 0 183 -4 285 -10 285 -5
0 -10 17 -10 38 0 32 -18 166 -37 280 -3 17 -10 32 -17 32 -6 0 -17 24 -23 53
-18 87 -42 162 -53 165 -5 2 -10 10 -10 18 0 20 -50 111 -80 146 -14 16 -42
47 -62 69 -21 23 -38 47 -38 55 0 8 -13 17 -30 21 -16 3 -30 9 -30 14 0 5 -9
9 -20 9 -11 0 -20 5 -20 10 0 6 -11 10 -25 10 -14 0 -25 5 -25 10 0 6 -45 10
-115 10 -70 0 -115 -4 -115 -10z"/>
</g>
</svg>
